<svg width="51" height="50" viewBox="0 0 51 50" fill="none" xmlns="http://www.w3.org/2000/svg">
<rect x="1.30269" y="1.3" width="47.4" height="47.4" rx="3.7" stroke="#13D9D9" stroke-width="2.6"/>
<path d="M38.1488 7H11.8511C9.17197 7 7 9.17186 7 11.8511V38.1488C7 40.828 9.17188 42.9998 11.8511 42.9998H24.821L24.8431 30.1354H21.5009C21.0666 30.1354 20.7141 29.7842 20.7124 29.3499L20.6964 25.2032C20.6947 24.7665 21.0483 24.4115 21.485 24.4115H24.8211V20.4048C24.8211 15.7549 27.661 13.223 31.8089 13.223H35.2127C35.6482 13.223 36.0013 13.5761 36.0013 14.0117V17.5082C36.0013 17.9436 35.6484 18.2966 35.2131 18.2968L33.1243 18.2978C30.8685 18.2978 30.4317 19.3697 30.4317 20.9428V24.4116H35.3885C35.8608 24.4116 36.2272 24.824 36.1716 25.2931L35.6801 29.4398C35.633 29.8366 35.2965 30.1356 34.897 30.1356H30.4538L30.4317 43H38.149C40.8281 43 43 40.8281 43 38.149V11.8511C42.9999 9.17186 40.828 7 38.1488 7Z" fill="#475993"/>
</svg>
