<svg width="51" height="50" viewBox="0 0 51 50" fill="none" xmlns="http://www.w3.org/2000/svg">
<rect x="1.30269" y="1.3" width="47.4" height="47.4" rx="3.7" stroke="#13D9D9" stroke-width="2.6"/>
<path d="M34.0027 43H18.0027C12.5027 43 8.00269 38.5 8.00269 33V17C8.00269 11.5 12.5027 7 18.0027 7H34.0027C39.5027 7 44.0027 11.5 44.0027 17V33C44.0027 38.5 39.5027 43 34.0027 43Z" fill="#304FFE"/>
<path d="M8.00269 17V33C8.00269 38.5 12.5027 43 18.0027 43H34.0027C39.5027 43 44.0027 38.5 44.0027 33V17C44.0027 16 43.9027 15.1 43.6027 14.2C38.0027 9.7 30.8027 7 23.0027 7C19.3027 7 15.7027 7.6 12.3027 8.8C9.70269 10.6 8.00269 13.6 8.00269 17Z" fill="#304FFE" fill-opacity="0.2902"/>
<path d="M23.0027 9C18.0027 9 13.4027 10.2 9.20269 12.2C8.40269 13.7 8.00269 15.3 8.00269 17V33C8.00269 38.5 12.5027 43 18.0027 43H34.0027C39.5027 43 44.0027 38.5 44.0027 33V17.2C38.5027 12.1 31.1027 9 23.0027 9Z" fill="#6200EA"/>
<path d="M44.0027 20C38.7027 14.5 31.3027 11 23.0027 11C17.6027 11 12.5027 12.5 8.20269 15.1C8.10269 15.7 8.00269 16.3 8.00269 17V33C8.00269 38.5 12.5027 43 18.0027 43H34.0027C39.5027 43 44.0027 38.5 44.0027 33V20Z" fill="#673AB7"/>
<path d="M44.0027 23C39.1027 16.9 31.5027 13 23.0027 13C17.4027 13 12.3027 14.7 8.00269 17.6V33C8.00269 38.5 12.5027 43 18.0027 43H34.0027C39.5027 43 44.0027 38.5 44.0027 33V23Z" fill="#8E24AA"/>
<path d="M44.0027 33V26.4C39.5027 19.6 31.8027 15 23.0027 15C17.4027 15 12.2027 16.9 8.00269 20V33C8.00269 38.5 12.5027 43 18.0027 43H34.0027C39.5027 43 44.0027 38.5 44.0027 33Z" fill="#C2185B"/>
<path d="M44.0027 33V30.6C40.4027 22.6 32.4027 17 23.0027 17C17.3027 17 12.0027 19.1 8.00269 22.6V33C8.00269 38.5 12.5027 43 18.0027 43H34.0027C39.5027 43 44.0027 38.5 44.0027 33Z" fill="#D81B60"/>
<path d="M43.6027 35.8C41.7027 26.2 33.2027 19 23.0027 19C17.1027 19 11.8027 21.4 8.00269 25.3V33C8.00269 38.5 12.5027 43 18.0027 43H34.0027C38.5027 43 42.4027 40 43.6027 35.8Z" fill="#F50057"/>
<path d="M41.9027 39C41.4027 29 33.2027 21 23.0027 21C16.9027 21 11.5027 23.9 8.00269 28.4V33C8.00269 38.5 12.5027 43 18.0027 43H34.0027C37.2027 43 40.1027 41.4 41.9027 39Z" fill="#FF1744"/>
<path d="M23.0027 23C16.5027 23 10.9027 26.6 8.00269 32V33C8.00269 38.5 12.5027 43 18.0027 43H34.0027C36.2027 43 38.3027 42.3 39.9027 41C39.9027 40.7 40.0027 40.3 40.0027 40C40.0027 30.6 32.4027 23 23.0027 23Z" fill="#FF5722"/>
<path d="M23.0027 25C16.0027 25 10.2027 29.7 8.50269 36.2C9.80269 40.2 13.6027 43 18.0027 43H34.0027C35.4027 43 36.6027 42.7 37.8027 42.2C37.9027 41.5 38.0027 40.7 38.0027 40C38.0027 31.7 31.3027 25 23.0027 25Z" fill="#FF6F00"/>
<path d="M23.0027 27C16.1027 27 10.5027 32.3 10.1027 39C11.9027 41.4 14.8027 43 18.0027 43H34.0027C34.6027 43 35.1027 42.9 35.7027 42.8C35.9027 41.9 36.0027 41 36.0027 40C36.0027 32.8 30.2027 27 23.0027 27Z" fill="#FF9800"/>
<path d="M33.6027 43C33.9027 42 34.0027 41 34.0027 40C34.0027 33.9 29.1027 29 23.0027 29C16.9027 29 12.0027 33.9 12.0027 40C12.0027 40.3 12.0027 40.7 12.1027 41C13.8027 42.2 15.8027 43 18.0027 43H33.6027Z" fill="#FFC107"/>
<path d="M23.0027 31C18.0027 31 14.0027 35 14.0027 40C14.0027 40.8 14.1027 41.6 14.3027 42.3C15.4027 42.8 16.7027 43 18.0027 43H31.5027C31.8027 42.1 32.0027 41.1 32.0027 40C32.0027 35 28.0027 31 23.0027 31Z" fill="#FFD54F"/>
<path d="M23.0027 33.1001C19.1027 33.1001 16.0027 36.2001 16.0027 40.1001C16.0027 41.1001 16.2027 42.0001 16.6027 42.9001C17.1027 43.0001 17.5027 43.0001 18.0027 43.0001H29.4027C29.8027 42.1001 30.0027 41.1001 30.0027 40.1001C30.0027 36.2001 26.9027 33.1001 23.0027 33.1001Z" fill="#FFE082"/>
<path d="M23.0027 35.1001C20.2027 35.1001 18.0027 37.3001 18.0027 40.1001C18.0027 41.2001 18.4027 42.2001 19.0027 43.0001H27.0027C27.6027 42.2001 28.0027 41.2001 28.0027 40.1001C28.0027 37.3001 25.8027 35.1001 23.0027 35.1001Z" fill="#FFECB3"/>
<path d="M32.0027 39H20.0027C15.6027 39 12.0027 35.4 12.0027 31V19C12.0027 14.6 15.6027 11 20.0027 11H32.0027C36.4027 11 40.0027 14.6 40.0027 19V31C40.0027 35.4 36.4027 39 32.0027 39ZM20.0027 13C16.7027 13 14.0027 15.7 14.0027 19V31C14.0027 34.3 16.7027 37 20.0027 37H32.0027C35.3027 37 38.0027 34.3 38.0027 31V19C38.0027 15.7 35.3027 13 32.0027 13H20.0027Z" fill="white"/>
<path d="M26.0027 32C22.1027 32 19.0027 28.9 19.0027 25C19.0027 21.1 22.1027 18 26.0027 18C29.9027 18 33.0027 21.1 33.0027 25C33.0027 28.9 29.9027 32 26.0027 32ZM26.0027 20C23.2027 20 21.0027 22.2 21.0027 25C21.0027 27.8 23.2027 30 26.0027 30C28.8027 30 31.0027 27.8 31.0027 25C31.0027 22.2 28.8027 20 26.0027 20Z" fill="white"/>
<path d="M34.0027 17C34.0027 17.6 33.6027 18 33.0027 18C32.4027 18 32.0027 17.6 32.0027 17C32.0027 16.4 32.4027 16 33.0027 16C33.6027 16 34.0027 16.4 34.0027 17Z" fill="white"/>
</svg>
