<svg width="51" height="50" viewBox="0 0 51 50" fill="none" xmlns="http://www.w3.org/2000/svg">
<rect x="1.30269" y="1.3" width="47.4" height="47.4" rx="3.7" stroke="#13D9D9" stroke-width="2.6"/>
<circle cx="25.0027" cy="25" r="19" fill="#CDCDCD" stroke="#0058BF" stroke-width="2"/>
<path d="M34.0027 25C34.0027 30.1178 32.9088 34.7014 31.1888 37.9693C29.4446 41.2833 27.2081 43 25.0027 43C22.7972 43 20.5608 41.2833 18.8165 37.9693C17.0966 34.7014 16.0027 30.1178 16.0027 25C16.0027 19.8822 17.0966 15.2986 18.8165 12.0307C20.5608 8.71669 22.7972 7 25.0027 7C27.2081 7 29.4446 8.71669 31.1888 12.0307C32.9088 15.2986 34.0027 19.8822 34.0027 25Z" fill="#CDCDCD" stroke="#0058BF" stroke-width="2"/>
<line x1="25.0027" y1="6" x2="25.0027" y2="44" stroke="#0058BF" stroke-width="2"/>
<rect x="11.5027" y="19.5" width="27" height="10" fill="#CDCDCD" stroke="#0058BF"/>
<path d="M18.1121 25.4648L18.6667 22.7734H19.7566L18.6785 27H17.7332L16.9324 24.3398L16.1316 27H15.1902L14.1121 22.7734H15.2019L15.7527 25.4609L16.5261 22.7734H17.3425L18.1121 25.4648ZM25.9949 25.4648L26.5496 22.7734H27.6394L26.5613 27H25.616L24.8152 24.3398L24.0144 27H23.073L21.9949 22.7734H23.0847L23.6355 25.4609L24.4089 22.7734H25.2253L25.9949 25.4648ZM33.8777 25.4648L34.4324 22.7734H35.5222L34.4441 27H33.4988L32.698 24.3398L31.8972 27H30.9558L29.8777 22.7734H30.9675L31.5183 25.4609L32.2917 22.7734H33.1082L33.8777 25.4648Z" fill="#23629D"/>
</svg>
