<svg width="51" height="50" viewBox="0 0 51 50" fill="none" xmlns="http://www.w3.org/2000/svg">
<rect x="1.30269" y="1.3" width="47.4" height="47.4" rx="3.7" stroke="#13D9D9" stroke-width="2.6"/>
<path d="M25.0027 42.5C34.6677 42.5 42.5027 34.665 42.5027 25C42.5027 15.335 34.6677 7.5 25.0027 7.5C15.3377 7.5 7.50269 15.335 7.50269 25C7.50269 34.665 15.3377 42.5 25.0027 42.5Z" fill="#29B6F6"/>
<path d="M33.7089 17.125L30.4312 33.8603C30.4312 33.8603 30.2903 34.625 29.3418 34.625C28.8378 34.625 28.5779 34.3853 28.5779 34.3853L21.4782 28.4939L18.0044 26.743L13.5463 25.5574C13.5463 25.5574 12.7527 25.3281 12.7527 24.6719C12.7527 24.125 13.5691 23.8643 13.5691 23.8643L32.2206 16.4548C32.2206 16.4548 32.7902 16.2491 33.2058 16.25C33.4613 16.25 33.7527 16.3594 33.7527 16.6875C33.7527 16.9063 33.7089 17.125 33.7089 17.125Z" fill="white"/>
<path d="M24.1277 30.6919L21.1299 33.6442C21.1299 33.6442 20.9995 33.7448 20.8254 33.7492C20.765 33.7509 20.7003 33.7413 20.6338 33.7116L21.4773 28.4922L24.1277 30.6919Z" fill="#B0BEC5"/>
<path d="M30.1626 19.9214C30.0147 19.7289 29.7417 19.6939 29.5492 19.84L18.0027 26.7499C18.0027 26.7499 19.8454 31.9054 20.1263 32.7979C20.4081 33.6913 20.6338 33.7123 20.6338 33.7123L21.4773 28.4929L30.0803 20.5339C30.2728 20.3878 30.3087 20.1139 30.1626 19.9214Z" fill="#CFD8DC"/>
</svg>
