<svg width="51" height="50" viewBox="0 0 51 50" fill="none" xmlns="http://www.w3.org/2000/svg">
<rect x="1.30269" y="1.3" width="47.4" height="47.4" rx="3.7" stroke="#13D9D9" stroke-width="2.6"/>
<path d="M24.0027 5C21.3637 5 13.3327 5 8.89269 8.8513C6.24869 11.3536 5.00269 14.9693 5.00269 20.2V23.05C5.00269 28.2807 6.24869 31.8964 8.92369 34.4272C10.2557 35.5815 12.0717 36.5039 14.2917 37.1413L15.0027 37.3447V42.4062C15.0027 43 15.1837 43 15.2437 43C15.3667 43 15.5637 42.963 15.9377 42.6476C16.0277 42.563 16.6877 41.8847 19.8977 38.4685L20.2217 38.1236L20.7067 38.1531C21.7817 38.2167 22.8907 38.25 24.0027 38.25C26.6417 38.25 34.6727 38.25 39.1127 34.3977C41.7557 31.8954 43.0027 28.2797 43.0027 23.05V20.2C43.0027 14.9693 41.7567 11.3536 39.0817 8.8228C34.6727 5 26.6417 5 24.0027 5Z" fill="white"/>
<path d="M33.4537 28.854C32.3427 27.918 31.8297 27.635 30.2957 26.714C29.6567 26.331 28.6827 26 28.1717 26C27.8227 26 27.4047 26.267 27.1487 26.523C26.4927 27.179 26.2777 28 25.1277 28C24.0027 28 22.0377 26.855 20.6277 25.375C19.1477 23.965 18.0027 22 18.0027 20.875C18.0027 19.725 18.8087 19.495 19.4647 18.838C19.7207 18.583 20.0027 18.165 20.0027 17.816C20.0027 17.305 19.6717 16.346 19.2887 15.707C18.3677 14.172 18.0857 13.659 17.1487 12.549C16.8317 12.173 16.4707 12.001 16.0927 12C15.4537 11.999 14.6147 12.316 14.0467 12.739C13.1927 13.376 12.2997 14.243 12.0607 15.323C12.0287 15.47 12.0097 15.618 12.0037 15.766C11.9577 16.891 12.3997 18.033 12.8767 19C13.9997 21.279 15.4857 23.485 17.1027 25.455C17.6197 26.085 18.1827 26.671 18.7657 27.237C19.3317 27.819 19.9177 28.382 20.5477 28.9C22.5177 30.517 24.7237 32.003 27.0027 33.126C27.9607 33.598 29.0887 34.032 30.2027 34C30.3617 33.995 30.5207 33.977 30.6797 33.942C31.7597 33.704 32.6267 32.81 33.2637 31.956C33.6867 31.388 34.0037 30.55 34.0027 29.91C34.0017 29.532 33.8297 29.171 33.4537 28.854Z" fill="#7E57C2"/>
<path d="M34.0027 24C33.4507 24 33.0027 23.552 33.0027 23V22C33.0027 17.038 28.9647 13 24.0027 13C23.4507 13 23.0027 12.552 23.0027 12C23.0027 11.448 23.4507 11 24.0027 11C30.0677 11 35.0027 15.935 35.0027 22V23C35.0027 23.552 34.5547 24 34.0027 24Z" fill="#7E57C2"/>
<path d="M27.8607 22.0002C27.4167 22.0002 27.0107 21.7022 26.8937 21.2522C26.6197 20.2012 25.7997 19.3802 24.7527 19.1102C24.2177 18.9712 23.8967 18.4262 24.0347 17.8912C24.1727 17.3572 24.7167 17.0362 25.2537 17.1732C27.0017 17.6262 28.3717 18.9952 28.8287 20.7472C28.9677 21.2822 28.6477 21.8272 28.1137 21.9672C28.0287 21.9892 27.9437 22.0002 27.8607 22.0002Z" fill="#7E57C2"/>
<path d="M31.0027 23.0001C30.4507 23.0001 30.0027 22.5521 30.0027 22.0001C30.0027 18.8121 27.5087 16.1821 24.3247 16.0141C23.7727 15.9851 23.3497 15.5141 23.3787 14.9631C23.4077 14.4111 23.8867 13.9871 24.4297 14.0171C28.6767 14.2411 32.0027 17.7481 32.0027 22.0001C32.0027 22.5521 31.5547 23.0001 31.0027 23.0001Z" fill="#7E57C2"/>
<path d="M24.0027 4C19.5027 4 12.4907 4.414 8.2187 8.316C5.1987 11.323 4.0027 15.541 4.0027 21C4.0027 21.452 4.0007 21.956 4.0047 22.5C4.0007 23.043 4.0027 23.547 4.0027 23.999C4.0027 29.458 5.1987 33.676 8.2187 36.683C9.8447 38.168 11.8727 39.145 14.0027 39.789V44.375C14.0027 45.971 15.0517 46 15.2437 46H15.2527C15.7467 45.998 16.1737 45.756 16.6017 45.376C16.7627 45.233 18.6217 43.161 20.6437 40.895C21.8477 40.972 22.9917 41 24.0017 41C28.5017 41 35.5127 40.585 39.7857 36.683C42.8047 33.677 44.0017 29.458 44.0017 23.999C44.0017 23.547 44.0037 23.043 43.9997 22.499C44.0037 21.955 44.0017 21.452 44.0017 20.999C44.0017 15.54 42.8057 11.322 39.7857 8.315C35.5137 4.414 28.5027 4 24.0027 4ZM41.0027 23.651V23.999C41.0027 28.905 39.9577 32.248 37.7167 34.511C33.8347 38 26.4397 38 24.0017 38C23.2597 38 22.0557 37.999 20.6347 37.9C20.2397 38.344 16.0027 43.083 16.0027 43.083V37.22C13.8987 36.715 11.8197 35.887 10.2887 34.512C8.0477 32.248 7.0027 28.905 7.0027 23.999V23.651C7.0027 23.3 7.0017 22.921 7.0047 22.478C7.0017 22.078 7.0017 21.7 7.0027 21.348V21C7.0027 16.094 8.0477 12.751 10.2887 10.488C14.1697 6.999 21.5657 6.999 24.0027 6.999C26.4397 6.999 33.8347 6.999 37.7157 10.488C39.9577 12.751 41.0017 16.094 41.0017 21V21.348C41.0017 21.699 41.0027 22.078 40.9997 22.521C41.0027 22.922 41.0027 23.3 41.0027 23.651Z" fill="#7E57C2"/>
</svg>
