<svg width="28" height="28" viewBox="0 0 28 28" fill="none" xmlns="http://www.w3.org/2000/svg">
<path d="M20.2222 28H7.77778C3.5 28 0 24.5 0 20.2222V7.77778C0 3.5 3.5 0 7.77778 0H20.2222C24.5 0 28 3.5 28 7.77778V20.2222C28 24.5 24.5 28 20.2222 28Z" fill="#304FFE"/>
<path d="M0 7.77778V20.2222C0 24.5 3.5 28 7.77778 28H20.2222C24.5 28 28 24.5 28 20.2222V7.77778C28 7 27.9222 6.3 27.6889 5.6C23.3333 2.1 17.7333 0 11.6667 0C8.78889 0 5.98889 0.466667 3.34444 1.4C1.32222 2.8 0 5.13333 0 7.77778Z" fill="#304FFE" fill-opacity="0.2902"/>
<path d="M11.6667 1.80646C7.77778 1.80646 4.2 2.73094 0.933333 4.27173C0.311111 5.42733 0 6.65997 0 7.96965V20.296C0 24.5332 3.5 28 7.77778 28H20.2222C24.5 28 28 24.5332 28 20.296V8.12373C23.7222 4.19469 17.9667 1.80646 11.6667 1.80646Z" fill="#6200EA"/>
<path d="M28 10.4718C23.8778 6.28025 18.1222 3.61292 11.6667 3.61292C7.46667 3.61292 3.5 4.75606 0.155555 6.73751C0.0777776 7.19477 0 7.65203 0 8.1855V20.379C0 24.5706 3.5 28 7.77778 28H20.2222C24.5 28 28 24.5706 28 20.379V10.4718Z" fill="#673AB7"/>
<path d="M28 12.9463C24.1889 8.35486 18.2778 5.41937 11.6667 5.41937C7.31111 5.41937 3.34444 6.69894 0 8.88174V20.4731C0 24.6129 3.5 28 7.77778 28H20.2222C24.5 28 28 24.6129 28 20.4731V12.9463Z" fill="#8E24AA"/>
<path d="M28 20.2581V15.1484C24.5 9.88386 18.5111 6.32257 11.6667 6.32257C7.31111 6.32257 3.26667 7.79354 0 10.1935V20.2581C0 24.5161 3.5 28 7.77778 28H20.2222C24.5 28 28 24.5161 28 20.2581Z" fill="#C2185B"/>
<path d="M28 20.0099V18.0923C25.2 11.7003 18.9778 7.22583 11.6667 7.22583C7.23333 7.22583 3.11111 8.90375 0 11.7003V20.0099C0 24.4045 3.5 28 7.77778 28H20.2222C24.5 28 28 24.4045 28 20.0099Z" fill="#D81B60"/>
<path d="M28 22.3096C26.5056 14.7225 19.8202 9.03223 11.7978 9.03223C7.1573 9.03223 2.98876 10.929 0 14.0113V20.0967C0 24.4435 3.53933 28 7.86517 28H20.4494C23.9888 28 27.0562 25.629 28 22.3096Z" fill="#F50057"/>
<path d="M26.25 24.8797C25.8628 17.0792 19.5133 10.8387 11.615 10.8387C6.89159 10.8387 2.71018 13.1009 0 16.6111V20.1994C0 24.4897 3.48451 28 7.74336 28H20.1327C22.6106 28 24.8562 26.7519 26.25 24.8797Z" fill="#FF1744"/>
<path d="M11.4844 12.6451C6.50781 12.6451 2.22031 15.409 0 19.5548V20.3226C0 24.5451 3.44531 28 7.65625 28H19.9062C21.5906 28 23.1984 27.4626 24.4234 26.4645C24.4234 26.2342 24.5 25.9271 24.5 25.6968C24.5 18.48 18.6812 12.6451 11.4844 12.6451Z" fill="#FF5722"/>
<path d="M18.5 24.3871H9.5C6.2 24.3871 3.5 21.7161 3.5 18.4516V9.5484C3.5 6.28388 6.2 3.61292 9.5 3.61292H18.5C21.8 3.61292 24.5 6.28388 24.5 9.5484V18.4516C24.5 21.7161 21.8 24.3871 18.5 24.3871ZM9.5 5.09679C7.025 5.09679 5 7.10001 5 9.5484V18.4516C5 20.9 7.025 22.9032 9.5 22.9032H18.5C20.975 22.9032 23 20.9 23 18.4516V9.5484C23 7.10001 20.975 5.09679 18.5 5.09679H9.5Z" fill="white"/>
<path d="M14 19.871C10.5875 19.871 7.875 17.271 7.875 14C7.875 10.729 10.5875 8.12903 14 8.12903C17.4125 8.12903 20.125 10.729 20.125 14C20.125 17.271 17.4125 19.871 14 19.871ZM14 9.80645C11.55 9.80645 9.625 11.6516 9.625 14C9.625 16.3484 11.55 18.1935 14 18.1935C16.45 18.1935 18.375 16.3484 18.375 14C18.375 11.6516 16.45 9.80645 14 9.80645Z" fill="white"/>
</svg>
