<svg width="20" height="20" viewBox="0 0 20 20" fill="none" xmlns="http://www.w3.org/2000/svg">
<path d="M14.039 14.3357C13.8557 14.3133 13.6903 14.4447 13.669 14.6277C13.6477 14.8107 13.7783 14.9763 13.961 14.9977C17.4663 15.4103 19.3333 16.5223 19.3333 17.1667C19.3333 18.0713 15.7827 19.3333 10 19.3333C4.21733 19.3333 0.666667 18.0713 0.666667 17.1667C0.666667 16.5223 2.53367 15.4103 6.039 14.9977C6.22167 14.9763 6.35233 14.8103 6.331 14.6277C6.30933 14.4447 6.144 14.3127 5.961 14.3357C2.45133 14.749 0 15.913 0 17.1667C0 18.5747 3.435 20 10 20C16.565 20 20 18.5747 20 17.1667C20 15.913 17.5487 14.749 14.039 14.3357Z" fill="#A11111"/>
<path d="M9.94093 18.2523L15.0546 10.8667C16.9726 8.30967 16.6953 4.10667 14.4609 1.87267C13.2536 0.665 11.6483 0 9.94093 0C8.2336 0 6.62826 0.665 5.42093 1.87233C3.1866 4.10633 2.90926 8.30933 4.8196 10.8563L9.94093 18.2523ZM9.99993 4C11.2866 4 12.3333 5.047 12.3333 6.33333C12.3333 7.61967 11.2866 8.66667 9.99993 8.66667C8.71326 8.66667 7.6666 7.61967 7.6666 6.33333C7.6666 5.047 8.71326 4 9.99993 4Z" fill="#A11111"/>
</svg>
