<svg width="25" height="22" viewBox="0 0 25 22" fill="none" xmlns="http://www.w3.org/2000/svg">
<path d="M13.5417 17.2909L9.97295 20.8256C9.97295 20.8256 9.81774 20.9461 9.61045 20.9513C9.53857 20.9534 9.46149 20.9419 9.38232 20.9063L10.3865 14.6572L13.5417 17.2909Z" fill="#B0BEC5"/>
<path d="M24.9479 1.04762L21.0458 21.0844C21.0458 21.0844 20.8781 22 19.749 22C19.149 22 18.8396 21.713 18.8396 21.713L10.3875 14.6593L6.25208 12.563L0.944791 11.1435C0.944791 11.1435 0 10.869 0 10.0833C0 9.42857 0.971875 9.11638 0.971875 9.11638L23.176 0.245146C23.176 0.245146 23.8542 -0.00104428 24.349 3.334e-06C24.6531 3.334e-06 25 0.130956 25 0.523813C25 0.785718 24.9479 1.04762 24.9479 1.04762Z" fill="#29B6F6"/>
<path d="M20.726 4.39577C20.55 4.1653 20.225 4.12339 19.9958 4.29835L6.25 12.5714C6.25 12.5714 8.44375 18.744 8.77813 19.8125C9.11354 20.8821 9.38229 20.9073 9.38229 20.9073L10.3865 14.6582L20.6281 5.12911C20.8573 4.95415 20.9 4.62625 20.726 4.39577Z" fill="#A3C8D9"/>
</svg>
