<svg width="24" height="24" viewBox="0 0 24 24" fill="none" xmlns="http://www.w3.org/2000/svg">
<path d="M23.4012 18.3848C22.1893 17.3638 21.6297 17.0551 19.9564 16.0504C19.2594 15.6326 18.197 15.2716 17.6396 15.2716C17.2589 15.2716 16.8029 15.5628 16.5237 15.8421C15.8081 16.5577 15.5736 17.4532 14.3192 17.4532C13.092 17.4532 10.9486 16.2042 9.41062 14.5898C7.79624 13.0517 6.54728 10.9083 6.54728 9.68109C6.54728 8.42664 7.42646 8.17575 8.14202 7.45907C8.42126 7.18091 8.72887 6.72495 8.72887 6.34425C8.72887 5.78684 8.36782 4.74073 7.95004 4.0437C6.94542 2.36928 6.63782 1.80968 5.61574 0.598866C5.26996 0.188715 4.87618 0.0010934 4.46386 2.5736e-06C3.76684 -0.00108825 2.85167 0.344704 2.23209 0.806124C1.30056 1.50098 0.326475 2.44673 0.0657753 3.62482C0.0308698 3.78517 0.0101456 3.94661 0.00360083 4.10805C-0.0465757 5.33523 0.435555 6.58096 0.955864 7.63579C2.18083 10.1218 3.80175 12.5281 5.56556 14.6771C6.12951 15.3643 6.74362 16.0035 7.37956 16.6209C7.99695 17.2558 8.63615 17.8699 9.32335 18.435C11.4722 20.1988 13.8785 21.8198 16.3644 23.0448C17.4094 23.5597 18.6398 24.0331 19.855 23.9982C20.0284 23.9927 20.2018 23.9731 20.3753 23.9349C21.5533 23.6753 22.4991 22.7001 23.1939 21.7685C23.6553 21.1489 24.0011 20.2348 24 19.5367C23.9989 19.1244 23.8113 18.7306 23.4012 18.3848Z" fill="#7E57C2"/>
</svg>
