<svg width="28" height="28" viewBox="0 0 28 28" fill="none" xmlns="http://www.w3.org/2000/svg">
<circle cx="14" cy="14" r="13" fill="#E5E5E5" stroke="#4FBBF8" stroke-width="2"/>
<path d="M20 14C20 17.5438 19.2419 20.7024 18.0648 22.9388C16.8635 25.2213 15.377 26.3 14 26.3C12.623 26.3 11.1365 25.2213 9.93517 22.9388C8.75815 20.7024 8 17.5438 8 14C8 10.4563 8.75815 7.29759 9.93517 5.06124C11.1365 2.77871 12.623 1.70001 14 1.70001C15.377 1.70001 16.8635 2.77871 18.0648 5.06124C19.2419 7.29759 20 10.4563 20 14Z" fill="#E1DBE4" stroke="#4FBBF8" stroke-width="2"/>
<rect x="4.69995" y="11" width="18.6" height="6.7" fill="#E5E5E5" stroke="#4FBBF8"/>
<path d="M9.2168 15.2529L9.82617 12.8301H10.3682L9.44531 16H9.00586L8.23535 13.5977L7.48535 16H7.0459L6.12598 12.8301H6.66504L7.28906 15.2031L8.02734 12.8301H8.46387L9.2168 15.2529ZM15.1685 15.2529L15.7779 12.8301H16.3199L15.397 16H14.9576L14.1871 13.5977L13.4371 16H12.9976L12.0777 12.8301H12.6168L13.2408 15.2031L13.9791 12.8301H14.4156L15.1685 15.2529ZM21.1202 15.2529L21.7296 12.8301H22.2716L21.3488 16H20.9093L20.1388 13.5977L19.3888 16H18.9493L18.0294 12.8301H18.5685L19.1925 15.2031L19.9308 12.8301H20.3673L21.1202 15.2529Z" fill="#B366FF"/>
</svg>
