<svg width="120" height="120" viewBox="0 0 120 120" fill="none" xmlns="http://www.w3.org/2000/svg">
<path d="M10 0.5H110C115.247 0.5 119.5 4.7533 119.5 10V110C119.5 115.247 115.247 119.5 110 119.5H10C4.75329 119.5 0.5 115.247 0.5 110V10C0.5 4.75329 4.7533 0.5 10 0.5Z" fill="#C4C4C4" stroke="#13D9D9"/>
<path d="M97.1535 38.917C95.025 36.789 92.4576 35.7246 89.4495 35.7246H86.0969C82.3784 35.7246 79.05 33.418 77.7445 29.9362V29.9362C77.2051 28.546 76.2195 27.3469 74.7858 26.339C73.3526 25.3316 71.8842 24.8276 70.3801 24.8276H48.5864C47.0825 24.8276 45.6138 25.3316 44.1806 26.339C42.7475 27.3469 41.7617 28.546 41.2225 29.9362V29.9362C39.9168 33.418 36.5882 35.7246 32.8697 35.7246H29.5172C26.5088 35.7246 23.9412 36.789 21.8127 38.917C19.6846 41.0452 18.6206 43.6131 18.6206 46.6212V84.7596C18.6206 87.7678 19.6846 90.336 21.8127 92.4636C23.9412 94.5921 26.5089 95.6565 29.5172 95.6565H89.4484C92.4566 95.6565 95.0238 94.5921 97.1525 92.4636C99.2804 90.336 100.345 87.7678 100.345 84.7596V46.6212C100.345 43.6131 99.281 41.0452 97.1535 38.917ZM72.9547 79.1627C69.2232 82.8943 64.733 84.7606 59.4829 84.7606C54.2328 84.7606 49.7429 82.8943 46.0111 79.1627C42.2793 75.4317 40.4138 70.9404 40.4138 65.6915C40.4138 60.441 42.2799 55.9512 46.0111 52.2194C49.7425 48.4876 54.233 46.6221 59.4829 46.6221C64.7328 46.6221 69.2232 48.4881 72.9547 52.2194C76.6863 55.9508 78.5521 60.441 78.5521 65.6915C78.5521 70.9404 76.6865 75.4312 72.9547 79.1627Z" fill="#838383"/>
<path d="M59.4832 53.4318C56.1063 53.4318 53.2189 54.6308 50.821 57.029C48.4231 59.4269 47.2241 62.3138 47.2241 65.6915C47.2241 69.0679 48.4231 71.9553 50.821 74.3532C53.2189 76.7506 56.1061 77.9496 59.4832 77.9496C62.8598 77.9496 65.7474 76.7506 68.1453 74.3532C70.5432 71.9553 71.7423 69.068 71.7423 65.6915C71.7423 62.314 70.5432 59.4271 68.1453 57.029C65.7476 54.6309 62.8598 53.4318 59.4832 53.4318Z" fill="#838383"/>
<path d="M101.379 7.24139V27.4138" stroke="#838383" stroke-width="3"/>
<path d="M91.0344 17.069H111.207" stroke="#838383" stroke-width="3"/>
</svg>
