<svg width="40" height="40" viewBox="0 0 40 40" fill="none" xmlns="http://www.w3.org/2000/svg">
<path opacity="0.3" d="M25 18.3334V6.66675H6.66669V20.2834L8.61669 18.3334H10H25Z" fill="#969696"/>
<path d="M9.99998 21.2666H9.83429L9.71714 21.3837L3.73331 27.3676V4.99992C3.73331 4.30417 4.30423 3.73325 4.99998 3.73325H26.6666C27.3624 3.73325 27.9333 4.30417 27.9333 4.99992V19.9999C27.9333 20.6957 27.3624 21.2666 26.6666 21.2666H9.99998ZM6.26665 20.2833V21.2489L6.94949 20.5661L8.78233 18.7333H25H25.4V18.3333V6.66659V6.26659H25H6.66665H6.26665V6.66659V20.2833ZM31.6666 25.3999H32.0666V24.9999V10.3999H35C35.6957 10.3999 36.2666 10.9708 36.2666 11.6666V35.7009L30.2828 29.7171L30.1657 29.5999H30H11.6666C10.9709 29.5999 10.4 29.029 10.4 28.3333V25.3999H31.6666Z" fill="#4F4F4F" stroke="#11A1A1" stroke-width="0.8"/>
</svg>
