<svg width="40" height="40" viewBox="0 0 40 40" fill="none" xmlns="http://www.w3.org/2000/svg">
<path d="M35 20V23.3334H20.3833L22.2333 32.2334L15 25V8.33337H30L35 20Z" fill="#D84242" fill-opacity="0.5"/>
<path d="M15.0001 5H30.0001C31.3834 5 32.5667 5.83333 33.0667 7.03333L38.1001 18.7833C38.2501 19.1667 38.3334 19.5667 38.3334 20V23.3333C38.3334 25.1667 36.8334 26.6667 35.0001 26.6667H24.4834L26.0667 34.2833L26.1167 34.8167C26.1167 35.5 25.8334 36.1333 25.3834 36.5833L23.6167 38.3333L12.6501 27.35C12.0334 26.75 11.6667 25.9167 11.6667 25V8.33333C11.6667 6.5 13.1667 5 15.0001 5ZM15.0001 25L22.2334 32.2333L20.3834 23.3333H35.0001V20L30.0001 8.33333H15.0001V25ZM8.33341 5H1.66675V25H8.33341V5Z" fill="#D84242"/>
</svg>
