<svg width="40" height="40" viewBox="0 0 40 40" fill="none" xmlns="http://www.w3.org/2000/svg">
<path d="M17.7667 7.7666L25 15V31.6667H10L5 20V16.6667H19.6167L17.7667 7.7666Z" fill="#28981E" fill-opacity="0.5"/>
<path d="M5.00008 13.3333H15.5167L13.9334 5.71663L13.8834 5.18329C13.8834 4.49996 14.1667 3.86663 14.6167 3.41663L16.3834 1.66663L27.3501 12.65C27.9667 13.25 28.3334 14.0833 28.3334 15V31.6666C28.3334 33.5 26.8334 35 25.0001 35H10.0001C8.61675 35 7.43341 34.1666 6.93341 32.9666L1.90008 21.2166C1.75008 20.8333 1.66675 20.4333 1.66675 20V16.6666C1.66675 14.8333 3.16675 13.3333 5.00008 13.3333ZM5.00008 20L10.0001 31.6666H25.0001V15L17.7667 7.76663L19.6167 16.6666H5.00008V20ZM38.3334 15H31.6667V35H38.3334V15Z" fill="#28981E"/>
</svg>
