<svg width="50" height="50" viewBox="0 0 50 50" fill="none" xmlns="http://www.w3.org/2000/svg">
<path d="M11.081 30.2155L9.34056 36.7128L2.97938 36.8474C1.07831 33.3213 0 29.287 0 24.9999C0 20.8543 1.0082 16.9449 2.79529 13.5026H2.79666L8.45991 14.5409L10.9407 20.1702C10.4215 21.684 10.1385 23.309 10.1385 24.9999C10.1387 26.8351 10.4711 28.5934 11.081 30.2155Z" fill="#FBBB00"/>
<path d="M49.5632 20.3296C49.8503 21.8419 50 23.4037 50 24.9999C50 26.7897 49.8118 28.5356 49.4533 30.2197C48.2363 35.9505 45.0564 40.9546 40.6512 44.4958L40.6499 44.4944L33.5167 44.1304L32.5071 37.8282C35.4302 36.1139 37.7145 33.4312 38.9178 30.2197H25.5498V20.3296H39.1129H49.5632Z" fill="#518EF8"/>
<path d="M40.6498 44.4945L40.6512 44.4959C36.3669 47.9396 30.9246 50 25.0002 50C15.4796 50 7.20225 44.6786 2.97972 36.8476L11.0813 30.2157C13.1925 35.8503 18.628 39.8613 25.0002 39.8613C27.7391 39.8613 30.3051 39.1209 32.507 37.8283L40.6498 44.4945Z" fill="#28B446"/>
<path d="M40.9573 5.75546L32.8584 12.3859C30.5796 10.9615 27.8859 10.1387 24.9999 10.1387C18.4835 10.1387 12.9464 14.3337 10.9409 20.1703L2.79676 13.5027H2.79539C6.95611 5.48076 15.3379 0 24.9999 0C31.0658 0 36.6276 2.16074 40.9573 5.75546Z" fill="#F14336"/>
</svg>
