<svg width="169" height="115" viewBox="0 0 169 115" fill="none" xmlns="http://www.w3.org/2000/svg">
<path d="M32.1641 77.9C29.0307 77.9 27.4641 75.5667 27.4641 70.9C27.4641 67.9667 28.4641 64.9333 30.4641 61.8C32.5307 58.6667 35.2641 57.1 38.6641 57.1C41.1974 57.1 43.4641 58.1667 45.4641 60.3C47.4641 62.4333 48.4641 65 48.4641 68C48.4641 71 47.6974 74.2333 46.1641 77.7C44.6974 81.1 42.8307 83.8333 40.5641 85.9C37.6307 88.4333 35.3307 90 33.6641 90.6C31.9974 91.2667 28.9307 92.1 24.4641 93.1C20.0641 94.1667 16.8641 94.7 14.8641 94.7C9.46406 94.7 5.2974 91.6333 2.36406 85.5C1.03073 82.7 0.364063 78.4667 0.364063 72.8C0.364063 65.3333 4.1974 58.2 11.8641 51.4C10.0641 48.6667 9.16406 45.5333 9.16406 42C9.16406 35.3333 11.5974 29.1667 16.4641 23.5C17.9307 21.8333 19.9974 20.4 22.6641 19.2C25.3974 18 27.9974 17.4 30.4641 17.4C32.9974 17.4 35.4974 18.1333 37.9641 19.6C41.7641 21.9333 43.6641 25.9333 43.6641 31.6C43.6641 34.0667 42.6307 36.6333 40.5641 39.3C38.5641 41.9 36.5974 43.2 34.6641 43.2C32.7974 43.2 31.2641 42.6333 30.0641 41.5C28.9307 40.3 28.3641 38.7667 28.3641 36.9C28.3641 35.0333 29.6307 32.9 32.1641 30.5C32.4307 30.2333 32.7307 30.1667 33.0641 30.3C33.9307 30.6333 34.0641 31.1667 33.4641 31.9C31.3307 33.9 30.2641 35.5667 30.2641 36.9C30.2641 38.2333 30.6307 39.3 31.3641 40.1C32.1641 40.9 33.1974 41.3 34.4641 41.3C35.7974 41.3 36.9307 40.2 37.8641 38C38.8641 35.8 39.3641 34.0333 39.3641 32.7C39.3641 31.3 39.0307 29.7 38.3641 27.9C37.7641 26.1 36.6974 24.7333 35.1641 23.8C33.6307 22.8667 31.9307 22.4 30.0641 22.4C24.3974 22.4 20.5974 23.4333 18.6641 25.5C14.0641 30.7667 11.7641 36 11.7641 41.2C11.7641 44.5333 12.4641 47.3333 13.8641 49.6C18.2641 45.8 22.1307 43.9 25.4641 43.9C28.8641 43.9 30.5641 45.1667 30.5641 47.7C30.5641 50.2333 29.4307 52.3 27.1641 53.9C24.8974 55.4333 22.4974 56.2 19.9641 56.2C17.4307 56.2 15.2974 55.3333 13.5641 53.6C6.83073 59.8667 3.46406 66.3 3.46406 72.9C3.46406 76.1 4.43073 79.6333 6.36406 83.5C6.8974 84.6333 8.0974 85.8333 9.96406 87.1C11.8974 88.3 13.7641 88.9 15.5641 88.9C17.4307 88.9 21.1307 88.1 26.6641 86.5C32.1974 84.9 35.7641 83.3667 37.3641 81.9C39.0307 80.3667 40.4974 78.2667 41.7641 75.6C43.0307 72.9333 43.6641 70.5 43.6641 68.3C43.6641 66.1 43.1974 64.2333 42.2641 62.7C41.3307 61.1 40.1307 60.3 38.6641 60.3C38.5974 60.3 38.5307 60.3 38.4641 60.3C35.7974 60.3 33.5974 61.5 31.8641 63.9C30.1974 66.3 29.3641 68.9333 29.3641 71.8C29.3641 72.9333 29.6307 73.9333 30.1641 74.8C30.6974 75.6 31.3641 76 32.1641 76C32.2307 76 32.2641 76 32.2641 76C33.9974 76 35.3307 74.9333 36.2641 72.8C36.5974 72 36.7641 71.3333 36.7641 70.8C36.7641 69.8667 36.3307 69.4667 35.4641 69.6C35.0641 69.6667 34.7641 69.5667 34.5641 69.3C34.3641 69.0333 34.2974 68.7333 34.3641 68.4C34.4974 67.8667 34.9974 67.6 35.8641 67.6C37.6641 67.6 38.5641 68.6667 38.5641 70.8C38.5641 72.9333 37.8974 74.6667 36.5641 76C35.2307 77.2667 33.7974 77.9 32.2641 77.9C32.2641 77.9 32.2307 77.9 32.1641 77.9ZM27.4641 47.7C27.4641 46.9667 26.7641 46.6 25.3641 46.6C23.2307 46.6 20.0641 48.2667 15.8641 51.6C17.0641 52.6 18.5307 53.1 20.2641 53.1C21.9974 53.1 23.6307 52.5667 25.1641 51.5C26.6974 50.3667 27.4641 49.1 27.4641 47.7Z" fill="url(#paint0_linear)"/>
<path d="M82.2764 66.8291C81.8857 66.6012 81.2998 66.4873 80.5186 66.4873C79.7536 66.4873 79.1107 66.6094 78.5898 66.8535C78.0853 67.0814 77.6865 67.5859 77.3936 68.3672L76.1484 71.6631C75.6276 73.0303 75.3672 74.0394 75.3672 74.6904C75.3672 75.3415 75.4323 75.8053 75.5625 76.082C75.6927 76.3424 75.8473 76.5703 76.0264 76.7656C76.3682 77.1237 76.7181 77.3434 77.0762 77.4248C75.0254 77.7015 73.6908 78.6536 73.0723 80.2812L69.1172 90.8525C68.7591 91.764 68.1895 92.3825 67.4082 92.708C67.1315 92.8219 66.8304 92.8789 66.5049 92.8789C66.1956 92.8789 65.8457 92.8219 65.4551 92.708L60.1084 80.4277C59.3923 78.9303 57.9437 77.9294 55.7627 77.4248C57.0485 76.6761 57.6751 75.9274 57.6426 75.1787C57.6426 74.5928 57.3822 73.6243 56.8613 72.2734L55.4941 68.7578C55.1035 67.7975 54.7699 67.2035 54.4932 66.9756C54.0212 66.585 53.4596 66.3896 52.8086 66.3896C52.1576 66.3896 51.653 66.528 51.2949 66.8047C51.1159 66.6257 51.0264 66.2757 51.0264 65.7549C51.0264 65.234 51.2461 64.762 51.6855 64.3389C52.125 63.8994 52.8167 63.6797 53.7607 63.6797C54.721 63.6797 55.6081 63.9727 56.4219 64.5586C57.0892 63.9727 57.903 63.6797 58.8633 63.6797C59.8398 63.6797 60.6862 63.9482 61.4023 64.4854C62.1673 63.9482 62.9974 63.6797 63.8926 63.6797C64.804 63.6797 65.5202 63.8994 66.041 64.3389C66.5618 64.762 66.8223 65.2992 66.8223 65.9502C66.8223 66.3408 66.7002 66.6582 66.4561 66.9023C66.0654 66.6094 65.6667 66.4629 65.2598 66.4629C64.3809 66.4629 63.9414 66.8779 63.9414 67.708C63.9414 68.0661 64.0065 68.3997 64.1367 68.709L69.1172 81.7461L73.6826 68.5381C73.8291 67.0895 73.2106 66.3652 71.8271 66.3652C71.1761 66.3652 70.582 66.5199 70.0449 66.8291C69.8659 66.5361 69.7764 66.1455 69.7764 65.6572C69.7764 65.1527 69.9961 64.6969 70.4355 64.29C70.875 63.8831 71.4772 63.6797 72.2422 63.6797C73.0234 63.6797 73.6908 63.9401 74.2441 64.4609C74.8301 63.9401 75.5055 63.6797 76.2705 63.6797C77.0355 63.6797 77.7028 63.9238 78.2725 64.4121C78.891 63.9238 79.5501 63.6797 80.25 63.6797C80.9661 63.6797 81.5195 63.875 81.9102 64.2656C82.3171 64.6562 82.5205 65.1201 82.5205 65.6572C82.5205 66.1943 82.4391 66.585 82.2764 66.8291ZM59.4248 69.2705C59.1644 69.4495 59.0342 69.7425 59.0342 70.1494C59.0342 70.5563 59.0423 70.8656 59.0586 71.0771C59.0911 71.2725 59.14 71.5085 59.2051 71.7852C59.3353 72.3223 59.555 72.957 59.8643 73.6895C60.4502 75.1543 60.6943 76.0088 60.5967 76.2529C60.5153 76.4971 60.4258 76.6842 60.3281 76.8145C60.1328 77.14 59.8968 77.3516 59.6201 77.4492C60.7594 77.6771 61.4674 78.0352 61.7441 78.5234C62.0697 79.1745 62.3057 79.6628 62.4521 79.9883L63.7949 82.9912C64.1367 83.7399 64.4622 84.3177 64.7715 84.7246C65.097 85.1315 65.5365 85.4001 66.0898 85.5303L59.4248 69.2705ZM105.226 84.627C105.584 83.9434 106.243 83.6016 107.203 83.6016C107.854 83.6016 108.359 83.8701 108.717 84.4072C109.01 84.8304 109.156 85.3512 109.156 85.9697C109.156 86.5719 109.002 87.1823 108.692 87.8008C108.383 88.4193 107.96 88.9808 107.423 89.4854C106.886 89.9899 106.267 90.4375 105.567 90.8281C104.884 91.2188 104.151 91.5443 103.37 91.8047C101.759 92.3418 100.082 92.6104 98.3408 92.6104C96.5993 92.6104 94.9635 92.3255 93.4336 91.7559C91.9199 91.1699 90.6178 90.3561 89.5273 89.3145C87.3952 87.2637 86.0931 84.4479 85.6211 80.8672C85.5072 80.0697 85.32 79.5 85.0596 79.1582C84.5713 78.556 83.7656 77.9782 82.6426 77.4248C84.0586 76.79 84.9619 75.7728 85.3525 74.373C85.4665 73.9824 85.556 73.5918 85.6211 73.2012C86.028 70.3366 87.4766 67.8952 89.9668 65.877C92.3757 63.9238 95.0693 62.9473 98.0479 62.9473C101.14 62.9473 103.818 64.0378 106.08 66.2188C108.424 68.4648 109.596 71.2236 109.596 74.4951C109.596 74.609 109.588 74.723 109.571 74.8369C109.571 74.9508 109.579 75.0566 109.596 75.1543C109.628 75.3659 109.758 75.488 109.986 75.5205C110.279 75.8949 110.426 76.2936 110.426 76.7168C110.426 77.6934 109.905 78.2712 108.863 78.4502C108.603 78.499 108.196 78.5641 107.643 78.6455L93.873 80.8428V83.1865C93.873 85.0745 94.4427 86.5719 95.582 87.6787C96.6562 88.7367 98.0153 89.2656 99.6592 89.2656C101.401 89.2656 102.8 88.9076 103.858 88.1914C104.851 87.5078 105.348 86.6126 105.348 85.5059C105.348 85.2454 105.307 84.9525 105.226 84.627ZM100.953 76.7412V69.9053C100.953 68.8311 100.742 68.0417 100.318 67.5371C99.5697 66.6745 98.8291 66.2432 98.0967 66.2432C97.3643 66.2432 96.7539 66.3571 96.2656 66.585C95.7773 66.7965 95.3542 67.1383 94.9961 67.6104C94.2474 68.6032 93.873 70.1494 93.873 72.249V77.8887L100.953 76.7412ZM104.566 76.1309V75.374C104.566 72.3467 104.314 70.5156 103.81 69.8809C103.582 69.6042 103.329 69.4007 103.053 69.2705V76.375L104.566 76.1309ZM89.8936 85.5303C90.1214 85.3512 90.2354 85.1478 90.2354 84.9199C90.2354 84.5618 90.1621 84.1061 90.0156 83.5527C89.3483 80.9974 89.0146 79.2233 89.0146 78.2305C89.0146 77.2214 89.0472 76.4401 89.1123 75.8867C89.1774 75.3171 89.2669 74.7474 89.3809 74.1777C89.5762 73.071 89.7878 72.0944 90.0156 71.248C90.1621 70.6947 90.2354 70.3203 90.2354 70.125C90.2354 69.7344 90.1214 69.4495 89.8936 69.2705C89.21 70.0843 88.6891 71.1748 88.3311 72.542C87.973 73.9092 87.68 75.1136 87.4521 76.1553C87.3708 76.5947 86.8906 77.0179 86.0117 77.4248C86.8906 77.8317 87.3708 78.2386 87.4521 78.6455C88.0544 81.3962 88.5508 83.1458 88.9414 83.8945C89.332 84.6432 89.6494 85.1885 89.8936 85.5303ZM118.238 91.707C117.49 92.2279 116.635 92.4883 115.675 92.4883C114.715 92.4883 114.015 92.2686 113.575 91.8291C113.152 91.3734 112.94 90.9421 112.94 90.5352C112.94 89.998 113.03 89.6074 113.209 89.3633C113.567 89.64 114.023 89.7783 114.576 89.7783C115.618 89.7783 116.293 89.2738 116.603 88.2646V80.6719C116.603 79.9557 116.448 79.4349 116.139 79.1094C115.667 78.5723 114.828 78.0107 113.624 77.4248C114.763 76.904 115.488 76.4889 115.797 76.1797C116.334 75.6426 116.603 74.9834 116.603 74.2021V70.6377C116.603 69.2542 116.131 68.5055 115.187 68.3916C114.91 68.359 114.56 68.3428 114.137 68.3428C113.714 68.3428 113.323 68.4811 112.965 68.7578C112.737 68.4486 112.623 68.1312 112.623 67.8057C112.623 67.4639 112.704 67.0895 112.867 66.6826C113.046 66.2594 113.307 65.8607 113.648 65.4863C114.511 64.6074 115.504 64.168 116.627 64.168C117.766 64.168 118.71 64.347 119.459 64.7051C120.354 63.696 121.266 63.1914 122.193 63.1914C123.121 63.1914 123.764 63.4111 124.122 63.8506C124.48 64.2738 124.659 64.9329 124.659 65.8281V68.123C125.506 66.6094 126.661 65.4131 128.126 64.5342C129.591 63.639 131.145 63.1914 132.789 63.1914C134.433 63.1914 135.751 63.4111 136.744 63.8506C137.753 64.2738 138.583 64.8841 139.234 65.6816C140.504 67.2604 141.139 69.5553 141.139 72.5664V74.1777C141.139 74.959 141.31 75.5205 141.651 75.8623C142.156 76.3831 142.978 76.904 144.117 77.4248C142.896 78.027 142.132 78.4827 141.822 78.792C141.367 79.2965 141.139 79.9069 141.139 80.623V88.2646C141.448 89.2738 142.123 89.7783 143.165 89.7783C143.718 89.7783 144.174 89.64 144.532 89.3633C144.711 89.6074 144.801 89.9655 144.801 90.4375C144.801 90.9095 144.581 91.3734 144.142 91.8291C143.718 92.2686 143.059 92.4883 142.164 92.4883C141.269 92.4883 140.455 92.236 139.723 91.7314C139.072 92.236 138.307 92.4883 137.428 92.4883C136.565 92.4883 135.792 92.2441 135.108 91.7559C134.392 92.2441 133.627 92.4883 132.813 92.4883C132 92.4883 131.357 92.2848 130.885 91.8779C130.413 91.471 130.177 90.8851 130.177 90.1201C130.177 89.762 130.299 89.4772 130.543 89.2656C130.917 89.5586 131.292 89.7051 131.666 89.7051C132.382 89.7051 132.895 89.3063 133.204 88.5088V73.958C133.204 70.8005 132.431 68.9694 130.885 68.4648C130.38 68.3021 129.835 68.2207 129.249 68.2207C128.663 68.2207 128.118 68.3428 127.613 68.5869C127.109 68.8148 126.653 69.1403 126.246 69.5635C125.351 70.5075 124.822 71.6305 124.659 72.9326V88.5088C124.968 89.3063 125.481 89.7051 126.197 89.7051C126.572 89.7051 126.946 89.5586 127.32 89.2656C127.564 89.4772 127.687 89.8678 127.687 90.4375C127.687 90.9909 127.451 91.471 126.979 91.8779C126.507 92.2848 125.88 92.4883 125.099 92.4883C124.334 92.4883 123.634 92.2441 122.999 91.7559C122.381 92.2441 121.624 92.4883 120.729 92.4883C119.833 92.4883 119.003 92.2279 118.238 91.707ZM135.548 85.5303C136.362 85.221 136.809 84.1549 136.891 82.332C136.988 80.5091 137.037 78.792 137.037 77.1807C137.037 75.5693 136.972 74.2428 136.842 73.2012C136.712 72.1432 136.524 71.3213 136.28 70.7354C136.036 70.1331 135.743 69.7018 135.401 69.4414C135.076 69.1647 134.718 68.9287 134.327 68.7334C134.946 70.1982 135.304 71.5329 135.401 72.7373C135.499 73.9417 135.548 75.1055 135.548 76.2285V85.5303ZM120.338 80.1348C120.354 79.5977 120.362 79.1501 120.362 78.792C120.379 78.4176 120.387 78.1165 120.387 77.8887C120.387 77.6608 120.387 77.4329 120.387 77.2051C120.387 76.9609 120.379 76.6436 120.362 76.2529C120.362 75.8623 120.354 75.431 120.338 74.959C120.338 74.487 120.322 74.0231 120.289 73.5674C120.24 72.4443 120.167 71.6712 120.069 71.248C119.874 70.304 119.5 69.653 118.946 69.2949V70.8818C118.946 73.6162 118.881 75.2275 118.751 75.7158C118.637 76.1878 118.442 76.5459 118.165 76.79C117.905 77.0342 117.514 77.2458 116.993 77.4248C117.97 77.7666 118.523 78.1735 118.653 78.6455C118.849 79.4268 118.946 81.1846 118.946 83.9189V85.5059C119.695 85.0176 120.126 84.0247 120.24 82.5273C120.305 81.4694 120.338 80.6719 120.338 80.1348ZM163.209 88.4355C163.518 88.11 163.762 87.7031 163.941 87.2148C164.12 86.7103 164.21 86.1895 164.21 85.6523C164.21 85.099 164.177 84.5944 164.112 84.1387C164.226 83.8945 164.535 83.7074 165.04 83.5771C165.545 83.4307 165.878 83.3574 166.041 83.3574C166.66 83.3574 167.156 83.5934 167.53 84.0654C167.905 84.5212 168.092 85.1641 168.092 85.9941C168.092 86.8079 167.848 87.6136 167.359 88.4111C166.887 89.2087 166.253 89.9167 165.455 90.5352C163.681 91.9186 161.614 92.6104 159.254 92.6104C154.762 92.6104 151.783 90.9095 150.318 87.5078C149.781 86.2546 149.513 84.6839 149.513 82.7959V79.8174C149.513 79.0524 148.674 78.2467 146.998 77.4004C148.674 76.4401 149.513 75.1462 149.513 73.5186V70.6377C149.513 68.7822 148.756 67.8545 147.242 67.8545C146.689 67.8545 146.233 67.9928 145.875 68.2695C145.647 67.9603 145.533 67.6429 145.533 67.3174C145.533 66.9756 145.59 66.6094 145.704 66.2188C145.834 65.8118 146.054 65.4456 146.363 65.1201C147.145 64.2738 148.357 63.9808 150.001 64.2412V63.46C150.001 61.751 150.432 60.2454 151.295 58.9434C152.06 57.7715 152.735 57.1855 153.321 57.1855C153.924 57.1855 154.387 57.389 154.713 57.7959C154.99 56.5101 155.356 55.5824 155.812 55.0127C156.267 54.443 156.918 54.1582 157.765 54.1582V64.3389H165.699C165.829 64.5993 165.895 65.0387 165.895 65.6572C165.895 66.2594 165.659 66.7477 165.187 67.1221C164.715 67.4801 164.145 67.6592 163.478 67.6592H157.765V84.1875C157.765 87.0195 158.408 88.6797 159.693 89.168C160.068 89.2982 160.466 89.3633 160.89 89.3633C161.329 89.3633 161.744 89.29 162.135 89.1436C162.542 88.9808 162.9 88.7448 163.209 88.4355ZM151.856 85.5303C152.621 85.042 153.053 84.0247 153.15 82.4785C153.215 81.3717 153.248 80.5091 153.248 79.8906C153.264 79.2721 153.272 78.7757 153.272 78.4014C153.289 78.0107 153.297 77.7096 153.297 77.498V76.5215C153.297 76.0495 153.289 75.4473 153.272 74.7148C153.272 73.9661 153.264 73.1605 153.248 72.2979C153.248 71.4189 153.232 70.5807 153.199 69.7832C153.15 67.8626 153.077 66.6908 152.979 66.2676C152.784 65.3236 152.41 64.6725 151.856 64.3145V71.9316C151.856 74.194 151.816 75.3903 151.734 75.5205C151.669 75.6507 151.612 75.8053 151.563 75.9844C151.417 76.4727 150.864 76.8796 149.903 77.2051C150.88 77.5469 151.433 77.9619 151.563 78.4502C151.759 79.2314 151.856 81.0625 151.856 83.9434V85.5303Z" fill="url(#paint1_linear)"/>
<defs>
<linearGradient id="paint0_linear" x1="28" y1="0" x2="28" y2="115" gradientUnits="userSpaceOnUse">
<stop stop-color="#644800"/>
<stop offset="0.677083" stop-color="#E8BC4D"/>
<stop offset="0.9999" stop-color="#FFF960"/>
<stop offset="1" stop-color="white" stop-opacity="0"/>
</linearGradient>
<linearGradient id="paint1_linear" x1="109.164" y1="42" x2="109.164" y2="115" gradientUnits="userSpaceOnUse">
<stop stop-color="#FFF960"/>
<stop offset="0.390625" stop-color="#E8BC4D"/>
<stop offset="1" stop-color="#644800"/>
</linearGradient>
</defs>
</svg>
