<svg width="67" height="67" viewBox="0 0 67 67" fill="none" xmlns="http://www.w3.org/2000/svg">
<path d="M57.9714 0H9.02845C4.04227 0 0 4.04208 0 9.02838V57.9713C0 62.9576 4.04211 66.9997 9.02845 66.9997H33.1669L33.208 43.0576H26.9878C26.1795 43.0576 25.5234 42.404 25.5203 41.5956L25.4904 33.8781C25.4873 33.0653 26.1454 32.4048 26.9582 32.4048H33.167V24.9477C33.167 16.2939 38.4523 11.5818 46.1722 11.5818H52.5069C53.3174 11.5818 53.9747 12.2388 53.9747 13.0495V19.5569C53.9747 20.3673 53.3179 21.0242 52.5078 21.0247L48.6202 21.0265C44.4219 21.0265 43.609 23.0214 43.609 25.9492V32.405H52.8341C53.7131 32.405 54.3951 33.1725 54.2915 34.0455L53.3768 41.763C53.2892 42.5015 52.663 43.0579 51.9194 43.0579H43.6501L43.609 67H57.9717C62.9579 67 67 62.9579 67 57.9718V9.02838C66.9998 4.04208 62.9577 0 57.9714 0Z" fill="#475993"/>
</svg>
