<svg width="67" height="67" viewBox="0 0 67 67" fill="none" xmlns="http://www.w3.org/2000/svg">
<path d="M66.3457 26.9374H63.65V26.8H33.5V40.2H52.4353C49.6677 47.9992 42.2479 53.6 33.5 53.6C22.3966 53.6 13.4 44.6034 13.4 33.5C13.4 22.3966 22.3966 13.4 33.5 13.4C38.6231 13.4 43.2883 15.3302 46.8346 18.4904L56.3088 9.01621C50.3285 3.4416 42.3265 0 33.5 0C14.9965 0 0 14.9965 0 33.5C0 52.0035 14.9965 67 33.5 67C52.0035 67 67 52.0035 67 33.5C67 31.2558 66.771 29.0639 66.3457 26.9374Z" fill="#FFC107"/>
<path d="M3.86035 17.9081L14.8722 25.9821C17.8492 18.6082 25.0596 13.4 33.5 13.4C38.6231 13.4 43.2883 15.3302 46.8346 18.4904L56.3088 9.01621C50.3285 3.4416 42.3265 0 33.5 0C20.63 0 9.47422 7.2627 3.86035 17.9081Z" fill="#FF3D00"/>
<path d="M33.5001 67C42.1499 67 50.0145 63.6893 55.9621 58.3044L45.5915 49.5303C42.2284 52.0755 38.0475 53.6 33.5001 53.6C24.7849 53.6 17.3913 48.045 14.604 40.2916L3.67725 48.7059C9.21914 59.5541 20.4796 67 33.5001 67Z" fill="#4CAF50"/>
<path d="M66.3457 26.9374H63.65V26.8H33.5V40.2H52.4354C51.1071 43.9491 48.6928 47.1748 45.5849 49.5303C45.5914 49.5303 45.5914 49.5303 45.5914 49.5303L55.962 58.3044C55.2292 58.9652 67 50.25 67 33.5C67 31.2558 66.771 29.0639 66.3457 26.9374Z" fill="#1976D2"/>
</svg>
