<svg width="37" height="46" viewBox="0 0 37 46" fill="none" xmlns="http://www.w3.org/2000/svg">
<g filter="url(#filter0_d)">
<path d="M25.876 9.29233C25.876 14.3148 22.5224 18.2845 18.5 18.2845C14.4774 18.2845 11.1238 14.3148 11.1238 9.29233C11.1238 6.73336 11.4086 4.48858 12.4575 2.88593C13.4873 1.31263 15.2955 0.3 18.5 0.3C21.7045 0.3 23.5126 1.31263 24.5423 2.88592C25.5912 4.48857 25.876 6.73335 25.876 9.29233Z" fill="#11A1A1" stroke="black" stroke-width="0.6"/>
<mask id="path-2-inside-1" fill="white">
<path d="M4.00151 32.7727C4.0002 32.4598 3.99889 32.6846 4.00151 32.7727V32.7727Z"/>
</mask>
<path d="M4.00151 32.7727C4.0002 32.4598 3.99889 32.6846 4.00151 32.7727V32.7727Z" fill="#11A1A1"/>
<path d="M4.6015 32.7702C4.60118 32.692 4.60084 32.6452 4.60054 32.6209C4.60047 32.6149 4.60038 32.6088 4.60026 32.6034C4.60021 32.6009 4.60011 32.5964 4.59992 32.5912C4.59983 32.5889 4.59963 32.5836 4.59924 32.577C4.59905 32.5738 4.59867 32.5678 4.59802 32.5603C4.59767 32.5563 4.59604 32.5368 4.59189 32.5122C4.59048 32.5038 4.5846 32.4684 4.57031 32.4248C4.56125 32.3992 4.5308 32.3318 4.50733 32.2912C4.45227 32.2174 4.23356 32.0592 4.05969 32.0149C3.85879 32.0288 3.58571 32.1781 3.51213 32.263C3.48179 32.3099 3.44357 32.388 3.43269 32.4172C3.41612 32.4656 3.40973 32.5052 3.40837 32.5134C3.40404 32.5394 3.40244 32.5601 3.40213 32.564C3.40151 32.5717 3.40116 32.5779 3.40099 32.5811C3.40042 32.5922 3.40026 32.6014 3.40024 32.6026C3.40012 32.6087 3.40007 32.6148 3.40005 32.6189C3.39987 32.6504 3.40017 32.7365 3.40177 32.7905L4.60125 32.755C4.60023 32.7208 4.59989 32.6504 4.60003 32.6258C4.60005 32.6229 4.60006 32.6235 4.60001 32.626C4.59999 32.6269 4.59996 32.6286 4.59989 32.6308C4.59984 32.6325 4.59969 32.6373 4.59937 32.6436C4.59921 32.6467 4.59887 32.6527 4.59826 32.6603C4.59796 32.664 4.59638 32.6847 4.59205 32.7106C4.5907 32.7187 4.58432 32.7584 4.56775 32.8067C4.55687 32.8359 4.51865 32.914 4.48832 32.9609C4.41474 33.0457 4.14166 33.195 3.94076 33.209C3.7669 33.1647 3.54819 33.0065 3.49314 32.9327C3.46967 32.8921 3.43922 32.8247 3.43016 32.7991C3.41588 32.7556 3.41001 32.7201 3.4086 32.7118C3.40447 32.6873 3.40284 32.6679 3.40251 32.664C3.40187 32.6567 3.40151 32.6508 3.40133 32.6478C3.40096 32.6417 3.40079 32.6369 3.40073 32.6353C3.40065 32.6332 3.4006 32.6316 3.40058 32.6308C3.40056 32.63 3.40055 32.6295 3.40054 32.6293C3.40054 32.6292 3.40058 32.631 3.40064 32.6357C3.40087 32.6546 3.40119 32.6971 3.40151 32.7753L4.6015 32.7702Z" fill="black" mask="url(#path-2-inside-1)"/>
<mask id="path-4-inside-2" fill="white">
<path d="M32.9978 33.0171C33.0019 32.9315 32.9992 32.4228 32.9978 33.0171V33.0171Z"/>
</mask>
<path d="M32.9978 33.0171C33.0019 32.9315 32.9992 32.4228 32.9978 33.0171V33.0171Z" fill="#11A1A1"/>
<path d="M33.5971 33.0461C33.6001 32.9838 33.6002 32.8174 33.5999 32.7589C33.5999 32.7571 33.5999 32.7192 33.5981 32.6926C33.5979 32.6888 33.5969 32.6746 33.5946 32.6567C33.5937 32.6492 33.5908 32.6275 33.5846 32.6002C33.5811 32.5855 33.5704 32.5484 33.5627 32.5262C33.5474 32.4885 33.4863 32.3822 33.4339 32.319C33.293 32.2096 32.8978 32.1416 32.6842 32.2224C32.5862 32.2979 32.4755 32.4405 32.4501 32.4917C32.4189 32.5626 32.4093 32.6245 32.4088 32.6271C32.4035 32.6571 32.4016 32.6813 32.4014 32.6839C32.4003 32.6974 32.3999 32.7084 32.3998 32.7104C32.3996 32.7147 32.3995 32.7183 32.3995 32.7206C32.3993 32.729 32.3991 32.7388 32.399 32.7476C32.3986 32.7852 32.3982 32.8674 32.3978 33.0157L33.5978 33.0186C33.5982 32.8697 33.5986 32.7926 33.5989 32.7611C33.599 32.7527 33.5991 32.7509 33.5991 32.7525C33.599 32.7531 33.599 32.7553 33.5988 32.7585C33.5988 32.7595 33.5984 32.7696 33.5974 32.7827C33.5972 32.785 33.5954 32.809 33.59 32.8389C33.5896 32.8414 33.5799 32.9033 33.5488 32.9741C33.5233 33.0254 33.4127 33.1679 33.3147 33.2434C33.1011 33.3242 32.7059 33.2562 32.5651 33.1468C32.5126 33.0836 32.4515 32.9773 32.4362 32.9397C32.4285 32.9175 32.4179 32.8804 32.4143 32.8657C32.4082 32.8385 32.4053 32.8168 32.4044 32.8094C32.4021 32.7916 32.4011 32.7777 32.4009 32.7741C32.3994 32.7521 32.3997 32.7354 32.3999 32.7654C32.4001 32.7946 32.4001 32.8453 32.3998 32.8938C32.3996 32.918 32.3994 32.9406 32.3991 32.959C32.3988 32.9799 32.3985 32.9884 32.3985 32.9882L33.5971 33.0461Z" fill="black" mask="url(#path-4-inside-2)"/>
<path d="M6.13592 23.2161C7.48324 21.4238 9.86068 20.4145 14.1857 19.6224C14.2261 19.6641 14.2765 19.7137 14.3372 19.7692C14.5151 19.9319 14.7816 20.1453 15.1434 20.3575C15.869 20.783 16.9718 21.2 18.4999 21.2C20.028 21.2 21.1307 20.783 21.8562 20.3575C22.2181 20.1452 22.4845 19.9319 22.6624 19.7691C22.723 19.7137 22.7734 19.6641 22.8138 19.6224C27.1872 20.4234 29.5693 21.4464 30.9086 23.2767C32.2752 25.1442 32.6102 27.9177 32.6815 32.4021C32.686 32.688 32.6895 32.8575 32.6922 32.9495C32.6935 32.9923 32.6947 33.0265 32.6965 33.0473L32.6965 33.0477C32.6966 33.0493 32.697 33.0533 32.6976 33.0589C32.6974 33.1948 32.6972 33.3808 32.6972 33.6315C32.6824 33.6551 32.6622 33.686 32.636 33.7234C32.5625 33.8277 32.4412 33.9828 32.256 34.172C31.8861 34.5502 31.2592 35.0673 30.2471 35.5892C28.222 36.6334 24.6482 37.6999 18.4999 37.6999C12.3514 37.6999 8.77761 36.6334 6.75261 35.5892C5.74052 35.0673 5.11364 34.5502 4.74371 34.172C4.55858 33.9828 4.43721 33.8277 4.3638 33.7234C4.33752 33.686 4.31735 33.6551 4.3026 33.6315C4.30254 33.2465 4.30208 32.9978 4.30163 32.8422C4.3023 32.8374 4.30277 32.8335 4.30307 32.8307C4.30407 32.8216 4.30474 32.8128 4.30521 32.8057C4.3062 32.791 4.30712 32.7721 4.30804 32.7492C4.31171 32.6577 4.31666 32.4676 4.32336 32.1125L4.32336 32.1125C4.40529 27.7478 4.76288 25.0426 6.13592 23.2161ZM32.9946 33.0102L32.698 33.003C32.698 33.0046 32.698 33.0026 32.6984 32.9987C32.6985 32.997 32.699 32.9918 32.7 32.9848L32.7 32.9847C32.7002 32.9833 32.7034 32.9578 32.7141 32.9279C32.7174 32.9185 32.7238 32.902 32.7345 32.8827C32.7435 32.8665 32.7663 32.8285 32.8098 32.7939C32.8492 32.7626 32.911 32.7311 32.9872 32.7288C32.9904 32.892 32.9928 32.9763 32.9946 33.0102ZM4.2963 32.7388C4.29881 32.7503 4.30008 32.7596 4.30059 32.7638L4.00687 32.7686C4.00898 32.7275 4.01168 32.6462 4.0151 32.5039C4.09856 32.5069 4.16115 32.544 4.19756 32.5748C4.25886 32.6268 4.2812 32.6894 4.28426 32.698C4.28438 32.6983 4.28447 32.6985 4.28453 32.6987C4.29146 32.7173 4.29492 32.7325 4.2963 32.7388ZM32.7294 33.5764C32.7296 33.5762 32.7296 33.5761 32.7295 33.5763L32.7294 33.5764Z" fill="#11A1A1" stroke="black" stroke-width="0.6"/>
</g>
<defs>
<filter id="filter0_d" x="0" y="0" width="37" height="45.9999" filterUnits="userSpaceOnUse" color-interpolation-filters="sRGB">
<feFlood flood-opacity="0" result="BackgroundImageFix"/>
<feColorMatrix in="SourceAlpha" type="matrix" values="0 0 0 0 0 0 0 0 0 0 0 0 0 0 0 0 0 0 127 0"/>
<feOffset dy="4"/>
<feGaussianBlur stdDeviation="2"/>
<feColorMatrix type="matrix" values="0 0 0 0 0 0 0 0 0 0 0 0 0 0 0 0 0 0 0.25 0"/>
<feBlend mode="normal" in2="BackgroundImageFix" result="effect1_dropShadow"/>
<feBlend mode="normal" in="SourceGraphic" in2="effect1_dropShadow" result="shape"/>
</filter>
</defs>
</svg>
