<svg width="24" height="32" viewBox="0 0 24 32" fill="none" xmlns="http://www.w3.org/2000/svg">
<path d="M18.0524 7.82512C18.0524 12.0425 15.2871 15.3501 11.9999 15.3501C8.71257 15.3501 5.94722 12.0425 5.94722 7.82512C5.94722 5.67093 6.18341 3.79193 7.04386 2.45419C7.88477 1.14685 9.36203 0.3 11.9999 0.3C14.6378 0.3 16.115 1.14685 16.9559 2.45419C17.8163 3.79192 18.0524 5.67092 18.0524 7.82512Z" fill="#979797" stroke="black" stroke-width="0.6"/>
<mask id="path-2-inside-1" fill="white">
<path d="M0.00129548 27.5981C0.000173562 27.3346 -0.000948359 27.5238 0.00129548 27.5981V27.5981Z"/>
</mask>
<path d="M0.00129548 27.5981C0.000173562 27.3346 -0.000948359 27.5238 0.00129548 27.5981V27.5981Z" fill="#979797"/>
<path d="M0.60129 27.5955C0.601009 27.5296 0.600722 27.4898 0.600459 27.4689C0.600394 27.4638 0.600313 27.4582 0.600201 27.4531C0.600151 27.4509 0.600048 27.4465 0.599854 27.4413C0.599767 27.439 0.599558 27.4336 0.599156 27.427C0.59896 27.4237 0.598569 27.4176 0.597895 27.41C0.597536 27.4059 0.595838 27.3861 0.591543 27.3611C0.590069 27.3525 0.58398 27.3165 0.569208 27.2723C0.559864 27.2464 0.528572 27.1784 0.504515 27.1376C0.448682 27.0641 0.230435 26.9086 0.0585541 26.8655C-0.139266 26.8791 -0.410479 27.0252 -0.484744 27.1093C-0.515764 27.1564 -0.554975 27.2351 -0.566185 27.2646C-0.583318 27.3136 -0.589938 27.3539 -0.591349 27.3622C-0.595846 27.3887 -0.597498 27.4098 -0.59782 27.4137C-0.598467 27.4216 -0.598825 27.4279 -0.599001 27.4312C-0.599594 27.4424 -0.599754 27.4516 -0.599776 27.4527C-0.599893 27.4586 -0.599935 27.4643 -0.599956 27.4679C-0.600117 27.4951 -0.599859 27.5689 -0.598431 27.6162L0.601022 27.5799C0.600207 27.553 0.599904 27.4951 0.600023 27.475C0.600037 27.4726 0.600043 27.4737 0.599986 27.4766C0.599968 27.4775 0.599929 27.4793 0.59986 27.4816C0.599807 27.4834 0.599652 27.4884 0.599309 27.4949C0.599142 27.498 0.598792 27.5042 0.598155 27.5119C0.597842 27.5157 0.596199 27.5367 0.591712 27.5631C0.590305 27.5714 0.58369 27.6117 0.566562 27.6607C0.555355 27.6902 0.516145 27.7689 0.485128 27.816C0.410866 27.9001 0.139655 28.0462 -0.0581624 28.0598C-0.230041 28.0167 -0.448286 27.8612 -0.504116 27.7877C-0.52817 27.7469 -0.55946 27.6789 -0.568801 27.653C-0.583569 27.6089 -0.589652 27.5729 -0.591121 27.5643C-0.595406 27.5394 -0.597094 27.5196 -0.597442 27.5157C-0.598106 27.5082 -0.598486 27.5022 -0.598672 27.4991C-0.599052 27.4928 -0.599239 27.488 -0.599304 27.4862C-0.599388 27.484 -0.599438 27.4823 -0.599461 27.4814C-0.599487 27.4805 -0.599502 27.4798 -0.599508 27.4796C-0.599521 27.479 -0.599495 27.4801 -0.599446 27.484C-0.599253 27.4994 -0.598979 27.5348 -0.598699 27.6006L0.60129 27.5955Z" fill="black" mask="url(#path-2-inside-1)"/>
<mask id="path-4-inside-2" fill="white">
<path d="M23.998 27.8039C24.0016 27.7318 23.9992 27.3034 23.998 27.8039V27.8039Z"/>
</mask>
<path d="M23.998 27.8039C24.0016 27.7318 23.9992 27.3034 23.998 27.8039V27.8039Z" fill="#979797"/>
<path d="M24.5973 27.8334C24.6001 27.7775 24.6001 27.6342 24.5998 27.5859C24.5998 27.5786 24.5997 27.5713 24.5996 27.565C24.5996 27.562 24.5995 27.5581 24.5994 27.5539C24.5994 27.5518 24.5993 27.5487 24.5992 27.5449C24.5991 27.5426 24.5988 27.5341 24.5981 27.5234C24.5978 27.5195 24.5968 27.5051 24.5944 27.4869C24.5934 27.4793 24.5905 27.4572 24.584 27.4294C24.5804 27.4145 24.5693 27.3769 24.5614 27.3544C24.5457 27.3163 24.4832 27.2097 24.4299 27.1466C24.2895 27.0393 23.8992 26.973 23.6885 27.0514C23.59 27.126 23.4779 27.268 23.4518 27.3195C23.4197 27.3912 23.4097 27.454 23.4092 27.4568C23.4036 27.4873 23.4017 27.5119 23.4015 27.5145C23.4004 27.5283 23.3999 27.5394 23.3998 27.5414C23.3997 27.5456 23.3996 27.5492 23.3995 27.5514C23.3993 27.5593 23.3992 27.5683 23.3991 27.5757C23.3987 27.608 23.3983 27.6777 23.398 27.8025L24.598 27.8054C24.5983 27.6799 24.5987 27.6155 24.599 27.5895C24.5991 27.5824 24.5991 27.5816 24.5991 27.5839C24.599 27.5847 24.599 27.5871 24.5988 27.5904C24.5988 27.5914 24.5984 27.6019 24.5973 27.6152C24.5971 27.6176 24.5952 27.6421 24.5897 27.6725C24.5892 27.6752 24.5792 27.7379 24.5471 27.8096C24.521 27.8612 24.4089 28.0032 24.3104 28.0777C24.0997 28.1561 23.7094 28.0898 23.569 27.9826C23.5157 27.9195 23.4532 27.8128 23.4375 27.7748C23.4296 27.7523 23.4185 27.7147 23.4149 27.6998C23.4085 27.6721 23.4055 27.65 23.4045 27.6425C23.4022 27.6244 23.4012 27.6102 23.4009 27.6065C23.3994 27.5836 23.3997 27.5648 23.3998 27.5925C23.4 27.6166 23.4 27.6589 23.3997 27.6994C23.3996 27.7196 23.3994 27.7383 23.3992 27.7534C23.3989 27.7709 23.3987 27.7765 23.3988 27.7744L24.5973 27.8334Z" fill="black" mask="url(#path-4-inside-2)"/>
<mask id="path-6-inside-3" fill="white">
<path d="M23.9846 27.282C23.8669 19.7536 22.8974 17.6084 15.4784 16.2505C15.4784 16.2505 14.434 17.6001 11.9999 17.6001C9.56571 17.6001 8.52119 16.2505 8.52119 16.2505C1.18312 17.5936 0.154647 19.707 0.0194165 27.0374C0.00832757 27.636 0.00318883 27.6675 0.00120544 27.598C0.00165621 27.7282 0.00219694 27.969 0.00219694 28.3889C0.00219694 28.3889 1.76849 32 11.9999 32C22.2311 32 23.9975 28.3889 23.9975 28.3889C23.9975 28.1191 23.9977 27.9315 23.998 27.8039C23.996 27.8469 23.992 27.7636 23.9846 27.282Z"/>
</mask>
<path d="M23.9846 27.282C23.8669 19.7536 22.8974 17.6084 15.4784 16.2505C15.4784 16.2505 14.434 17.6001 11.9999 17.6001C9.56571 17.6001 8.52119 16.2505 8.52119 16.2505C1.18312 17.5936 0.154647 19.707 0.0194165 27.0374C0.00832757 27.636 0.00318883 27.6675 0.00120544 27.598C0.00165621 27.7282 0.00219694 27.969 0.00219694 28.3889C0.00219694 28.3889 1.76849 32 11.9999 32C22.2311 32 23.9975 28.3889 23.9975 28.3889C23.9975 28.1191 23.9977 27.9315 23.998 27.8039C23.996 27.8469 23.992 27.7636 23.9846 27.282Z" fill="#979797"/>
<path d="M23.9846 27.282L24.5845 27.2727L24.5845 27.2726L23.9846 27.282ZM15.4784 16.2505L15.5864 15.6603L15.2273 15.5946L15.0038 15.8833L15.4784 16.2505ZM8.52119 16.2505L8.99568 15.8833L8.77225 15.5946L8.41317 15.6603L8.52119 16.2505ZM0.0194165 27.0374L0.619314 27.0486L0.619314 27.0485L0.0194165 27.0374ZM0.00120544 27.598L0.600961 27.5809L-0.598791 27.6001L0.00120544 27.598ZM0.00219694 28.3889H-0.597803V28.5278L-0.536782 28.6526L0.00219694 28.3889ZM23.9975 28.3889L24.5365 28.6526L24.5975 28.5278V28.3889H23.9975ZM23.998 27.8039L24.598 27.8052L23.3986 27.7762L23.998 27.8039ZM24.5845 27.2726C24.5261 23.5374 24.2674 20.9248 22.9566 19.102C21.6227 17.2471 19.3068 16.3412 15.5864 15.6603L15.3703 16.8407C19.069 17.5176 20.9473 18.3633 21.9824 19.8026C23.0405 21.274 23.3254 23.4982 23.3846 27.2914L24.5845 27.2726ZM15.4784 16.2505C15.0038 15.8833 15.004 15.883 15.0042 15.8828C15.0043 15.8827 15.0045 15.8825 15.0046 15.8823C15.0048 15.882 15.0051 15.8817 15.0053 15.8814C15.0057 15.8809 15.0061 15.8804 15.0064 15.8801C15.007 15.8793 15.0073 15.8789 15.0074 15.8787C15.0077 15.8784 15.0069 15.8793 15.0052 15.8814C15.0018 15.8854 14.9946 15.894 14.9833 15.9064C14.9609 15.9313 14.9227 15.9715 14.8684 16.0222C14.7595 16.1234 14.5865 16.2656 14.3444 16.4101C13.8642 16.6967 13.0999 17.0001 11.9999 17.0001V18.2001C13.334 18.2001 14.309 17.8287 14.9594 17.4405C15.2827 17.2476 15.5229 17.0523 15.6859 16.9006C15.7675 16.8247 15.83 16.7594 15.8741 16.7105C15.8962 16.686 15.9137 16.6656 15.9268 16.6499C15.9334 16.6421 15.9388 16.6354 15.9431 16.63C15.9453 16.6273 15.9472 16.6249 15.9488 16.6229C15.9496 16.6218 15.9504 16.6209 15.9511 16.62C15.9514 16.6196 15.9517 16.6192 15.952 16.6188C15.9522 16.6186 15.9524 16.6183 15.9525 16.6182C15.9527 16.618 15.9529 16.6177 15.4784 16.2505ZM11.9999 17.0001C10.8999 17.0001 10.1355 16.6967 9.65518 16.41C9.41312 16.2656 9.24003 16.1234 9.13118 16.0221C9.0768 15.9715 9.03865 15.9313 9.01619 15.9064C9.00496 15.894 8.99768 15.8854 8.99428 15.8813C8.99258 15.8793 8.99185 15.8784 8.99209 15.8787C8.9922 15.8788 8.99256 15.8793 8.99316 15.88C8.99346 15.8804 8.99382 15.8809 8.99424 15.8814C8.99445 15.8817 8.99468 15.882 8.99492 15.8823C8.99504 15.8824 8.99523 15.8827 8.99529 15.8827C8.99548 15.883 8.99568 15.8833 8.52119 16.2505C8.0467 16.6177 8.04691 16.618 8.04712 16.6183C8.0472 16.6184 8.04741 16.6186 8.04756 16.6188C8.04787 16.6192 8.04819 16.6196 8.04853 16.6201C8.0492 16.6209 8.04994 16.6219 8.05075 16.6229C8.05238 16.625 8.05427 16.6273 8.05644 16.63C8.06077 16.6354 8.06621 16.6421 8.07275 16.65C8.08584 16.6656 8.10338 16.6861 8.12547 16.7105C8.16963 16.7595 8.23211 16.8247 8.31368 16.9006C8.47675 17.0523 8.71693 17.2476 9.04026 17.4405C9.69074 17.8287 10.6657 18.2001 11.9999 18.2001V17.0001ZM8.41317 15.6603C4.73337 16.3338 2.42731 17.2274 1.08665 19.0422C-0.234419 20.8304 -0.513323 23.3859 -0.580481 27.0264L0.619314 27.0485C0.687387 23.3585 0.990335 21.1921 2.05183 19.7552C3.09373 18.3449 4.97094 17.5103 8.62922 16.8407L8.41317 15.6603ZM-0.580481 27.0263C-0.586037 27.3263 -0.590002 27.4778 -0.592637 27.5446C-0.592948 27.5525 -0.593214 27.5585 -0.593431 27.5629C-0.593656 27.5675 -0.59378 27.5695 -0.593779 27.5694C-0.593775 27.5694 -0.593698 27.5682 -0.593534 27.5662C-0.593386 27.5644 -0.593044 27.5603 -0.592452 27.5549C-0.591965 27.5504 -0.590718 27.5393 -0.588339 27.5248C-0.587801 27.5215 -0.580705 27.4734 -0.559548 27.4161C-0.555808 27.406 -0.51748 27.2913 -0.410259 27.1894C-0.346619 27.1289 -0.21773 27.0348 -0.0275629 27.025C0.169668 27.015 0.315258 27.1012 0.394906 27.1699C0.520998 27.2787 0.563351 27.4097 0.566333 27.4179C0.579858 27.4549 0.586646 27.485 0.589368 27.4977C0.595299 27.5254 0.597792 27.5471 0.598491 27.5532C0.599539 27.5624 0.600109 27.5694 0.600369 27.5728C0.601179 27.5835 0.60118 27.5885 0.600961 27.5809L-0.59855 27.6151C-0.598273 27.6248 -0.597678 27.6441 -0.596164 27.664C-0.596138 27.6643 -0.593766 27.7035 -0.584023 27.749C-0.581199 27.7622 -0.574308 27.7927 -0.560677 27.83C-0.55759 27.8384 -0.515129 27.9697 -0.388928 28.0785C-0.309225 28.1473 -0.163579 28.2336 0.0337068 28.2235C0.223929 28.2137 0.352874 28.1196 0.416571 28.0591C0.523905 27.957 0.562348 27.8421 0.566205 27.8317C0.587595 27.7737 0.594932 27.7246 0.595719 27.7198C0.598346 27.7038 0.59985 27.6908 0.600601 27.6838C0.60217 27.6693 0.603091 27.6564 0.60361 27.6486C0.604728 27.6316 0.605632 27.6121 0.60643 27.5919C0.609632 27.5107 0.613781 27.3472 0.619314 27.0486L-0.580481 27.0263ZM-0.598791 27.6001C-0.598343 27.7294 -0.597803 27.9695 -0.597803 28.3889H0.602197C0.602197 27.9685 0.601656 27.727 0.601202 27.5959L-0.598791 27.6001ZM0.00219694 28.3889C-0.536782 28.6526 -0.53648 28.6532 -0.536171 28.6538C-0.536059 28.654 -0.535742 28.6547 -0.535516 28.6551C-0.535064 28.6561 -0.534583 28.657 -0.534071 28.6581C-0.533048 28.6601 -0.531903 28.6624 -0.530635 28.6648C-0.528097 28.6698 -0.525063 28.6756 -0.521506 28.6823C-0.514392 28.6956 -0.505187 28.7122 -0.493681 28.7319C-0.470665 28.7714 -0.43847 28.8231 -0.395423 28.8854C-0.309266 29.01 -0.180003 29.176 0.00550602 29.369C0.377199 29.7556 0.970093 30.2455 1.88548 30.7258C3.71485 31.6857 6.81668 32.6 11.9999 32.6V31.4C6.95168 31.4 4.05467 30.5088 2.44305 29.6632C1.63794 29.2407 1.1498 28.8278 0.870585 28.5373C0.730639 28.3918 0.641978 28.2757 0.591574 28.2028C0.566341 28.1664 0.550597 28.1405 0.542744 28.1271C0.538814 28.1203 0.536852 28.1167 0.536658 28.1163C0.536561 28.1161 0.536906 28.1168 0.537667 28.1183C0.538048 28.119 0.538532 28.12 0.539118 28.1211C0.539411 28.1217 0.539729 28.1224 0.540072 28.1231C0.540244 28.1234 0.54052 28.124 0.540606 28.1241C0.540888 28.1247 0.541176 28.1253 0.00219694 28.3889ZM11.9999 32.6C17.183 32.6 20.2848 31.6857 22.1142 30.7258C23.0296 30.2455 23.6225 29.7556 23.9942 29.369C24.1797 29.176 24.309 29.01 24.3951 28.8854C24.4382 28.8231 24.4704 28.7714 24.4934 28.7319C24.5049 28.7122 24.5141 28.6956 24.5212 28.6823C24.5248 28.6756 24.5278 28.6698 24.5304 28.6649C24.5316 28.6624 24.5328 28.6601 24.5338 28.6581C24.5343 28.657 24.5348 28.6561 24.5352 28.6552C24.5355 28.6547 24.5358 28.6541 24.5359 28.6538C24.5362 28.6532 24.5365 28.6526 23.9975 28.3889C23.4586 28.1253 23.4589 28.1247 23.4591 28.1241C23.4592 28.124 23.4595 28.1234 23.4597 28.123C23.46 28.1224 23.4603 28.1217 23.4606 28.1211C23.4612 28.12 23.4617 28.119 23.4621 28.1183C23.4628 28.1168 23.4632 28.1161 23.4631 28.1163C23.4629 28.1167 23.4609 28.1203 23.457 28.1271C23.4491 28.1405 23.4334 28.1663 23.4082 28.2028C23.3578 28.2757 23.2691 28.3918 23.1291 28.5373C22.8499 28.8278 22.3617 29.2407 21.5566 29.6632C19.945 30.5088 17.048 31.4 11.9999 31.4V32.6ZM24.5975 28.3889C24.5975 28.1193 24.5977 27.9322 24.598 27.8052L23.398 27.8026C23.3977 27.9308 23.3975 28.1189 23.3975 28.3889H24.5975ZM23.3986 27.7762C23.3986 27.7758 23.3989 27.769 23.3998 27.7592C23.4002 27.7546 23.4012 27.7435 23.4032 27.7292C23.4034 27.7279 23.4095 27.6763 23.4308 27.6154C23.4373 27.5968 23.4498 27.5639 23.4708 27.5255C23.4883 27.4937 23.5332 27.4173 23.6196 27.3473C23.7194 27.2666 23.8945 27.1827 24.1114 27.2248C24.3007 27.2616 24.4116 27.3749 24.4553 27.4266C24.5369 27.5232 24.5655 27.6219 24.5682 27.6305C24.5778 27.6605 24.5829 27.6847 24.5851 27.6955C24.5897 27.7187 24.5918 27.7368 24.5924 27.7422C24.5933 27.75 24.5938 27.7559 24.5941 27.7588C24.5949 27.7687 24.5943 27.7644 24.5931 27.7224C24.591 27.6511 24.5882 27.5134 24.5845 27.2727L23.3846 27.2913C23.3884 27.5321 23.3913 27.6769 23.3936 27.7569C23.3946 27.7905 23.3958 27.8291 23.3981 27.8576C23.3983 27.859 23.4006 27.8919 23.4083 27.9304C23.4105 27.9416 23.4157 27.9662 23.4254 27.9964C23.4282 28.0053 23.4568 28.1042 23.5386 28.2009C23.5822 28.2526 23.6932 28.366 23.8826 28.4028C24.0995 28.4449 24.2746 28.361 24.3744 28.2802C24.4609 28.2102 24.5059 28.1338 24.5234 28.1018C24.5444 28.0634 24.5569 28.0304 24.5635 28.0117C24.585 27.9503 24.5913 27.898 24.5916 27.8957C24.5937 27.8803 24.5949 27.8678 24.5954 27.8616C24.5965 27.8485 24.5971 27.8373 24.5974 27.8316L23.3986 27.7762Z" fill="black" mask="url(#path-6-inside-3)"/>
</svg>
