<svg width="34" height="36" viewBox="0 0 34 36" fill="none" xmlns="http://www.w3.org/2000/svg">
<path d="M24.2734 9.86131C24.2734 14.8698 20.9632 18.8227 17 18.8227C13.0366 18.8227 9.72672 14.8698 9.72664 9.86131C9.72664 6.35774 10.5642 4.13059 11.8613 2.77847C13.156 1.42873 14.9578 0.900006 17 0.900006C19.0422 0.900006 20.844 1.42873 22.1387 2.77847C23.4358 4.13059 24.2734 6.35775 24.2734 9.86131Z" fill="#979797" stroke="black" stroke-width="0.6"/>
<path d="M11.2975 19.6115L11.1115 19.8469C12.8392 21.2123 14.8759 21.9374 17 21.9374C19.1238 21.9374 21.1607 21.2123 22.8885 19.8469L22.8886 19.8468C22.9125 19.8279 22.9413 19.8261 22.9658 19.8393C22.9659 19.8394 22.9659 19.8394 22.966 19.8394L28.8955 23.0644C29.2164 23.2389 29.4776 23.5278 29.6267 23.8788L29.6267 23.8788L33.4476 32.8715L33.4476 32.8716C33.673 33.4019 33.6263 34.0085 33.3245 34.4936C33.0234 34.9774 32.5191 35.26 31.9775 35.26H2.02231C1.48075 35.26 0.976581 34.9776 0.675512 34.4937L0.67549 34.4936C0.373576 34.0085 0.326959 33.4022 0.55243 32.8715L0.276417 32.7542L0.552432 32.8715L4.3733 23.8788C4.3733 23.8788 4.37331 23.8788 4.37331 23.8788C4.52257 23.5275 4.78344 23.2389 5.10441 23.0644L5.10445 23.0644L11.0336 19.8394C11.0336 19.8394 11.0337 19.8394 11.0337 19.8393C11.0581 19.8262 11.0871 19.8278 11.1117 19.8471L11.2975 19.6115ZM11.2975 19.6115C11.1796 19.5186 11.0212 19.5048 10.8905 19.5758H23.1091C22.9783 19.5048 22.82 19.5186 22.7025 19.6115C21.0253 20.9369 19.0534 21.6374 17 21.6374C14.9464 21.6374 12.9746 20.9369 11.2975 19.6115Z" fill="#979797" stroke="black" stroke-width="0.6"/>
</svg>
