<svg width="39" height="40" viewBox="0 0 39 40" fill="none" xmlns="http://www.w3.org/2000/svg">
<g filter="url(#filter0_d)">
<path d="M26.1505 8.47716C26.1505 13.0518 23.1198 16.6544 19.4999 16.6544C15.8798 16.6544 12.8494 13.0518 12.8493 8.47716C12.8493 5.27406 13.6171 3.24306 14.8013 2.01189C15.9833 0.782948 17.6294 0.3 19.4999 0.3C21.3703 0.3 23.0164 0.782947 24.1985 2.01189C25.3826 3.24306 26.1505 5.27407 26.1505 8.47716Z" fill="#11A1A1" stroke="black" stroke-width="0.6"/>
<path d="M14.2664 17.4018L14.0807 17.6374C15.6706 18.8905 17.5451 19.5561 19.5001 19.5561C21.4548 19.5561 23.3294 18.8905 24.9192 17.6374L24.9193 17.6374C24.9271 17.6312 24.9349 17.6286 24.9418 17.628C24.9487 17.6274 24.9561 17.6287 24.9639 17.6329L30.4058 20.5848C30.6954 20.7419 30.9311 21.0019 31.0657 21.3179L31.0657 21.318L34.5724 29.5493L34.5724 29.5493C34.776 30.027 34.7338 30.5732 34.4613 31.0101C34.1895 31.4458 33.7344 31.7 33.2458 31.7H5.75406C5.2655 31.7 4.81058 31.4459 4.53877 31.0102L4.53875 31.0101C4.26614 30.5733 4.22403 30.0272 4.42765 29.5493L4.15165 29.4317L4.42765 29.5493L7.9343 21.318C8.06906 21.0017 8.30459 20.7418 8.59419 20.5848L8.59423 20.5848L14.0358 17.6329C14.0358 17.6329 14.0358 17.6328 14.0359 17.6328C14.0436 17.6287 14.051 17.6274 14.058 17.628C14.0649 17.6286 14.0729 17.6313 14.081 17.6376L14.2664 17.4018ZM14.2664 17.4018C14.1582 17.3167 14.0129 17.3041 13.8929 17.3691H25.1067C24.9867 17.3041 24.8414 17.3167 24.7335 17.4018C23.1943 18.6149 21.3845 19.2561 19.5001 19.2561C17.6153 19.2561 15.8057 18.6149 14.2664 17.4018Z" fill="#11A1A1" stroke="black" stroke-width="0.6"/>
</g>
<defs>
<filter id="filter0_d" x="0" y="0" width="39" height="40" filterUnits="userSpaceOnUse" color-interpolation-filters="sRGB">
<feFlood flood-opacity="0" result="BackgroundImageFix"/>
<feColorMatrix in="SourceAlpha" type="matrix" values="0 0 0 0 0 0 0 0 0 0 0 0 0 0 0 0 0 0 127 0"/>
<feOffset dy="4"/>
<feGaussianBlur stdDeviation="2"/>
<feColorMatrix type="matrix" values="0 0 0 0 0 0 0 0 0 0 0 0 0 0 0 0 0 0 0.25 0"/>
<feBlend mode="normal" in2="BackgroundImageFix" result="effect1_dropShadow"/>
<feBlend mode="normal" in="SourceGraphic" in2="effect1_dropShadow" result="shape"/>
</filter>
</defs>
</svg>
