<svg width="30" height="30" viewBox="0 0 30 30" fill="none" xmlns="http://www.w3.org/2000/svg">
<path d="M2.7 27V27.3H3H23.7V29.7H3C1.51569 29.7 0.3 28.4843 0.3 27V6.3H2.7V27ZM25.5 13.8H25.8V13.5V10.5V10.2H25.5H19.8V4.5V4.2H19.5H16.5H16.2V4.5V10.2H10.5H10.2V10.5V13.5V13.8H10.5H16.2V19.5V19.8H16.5H19.5H19.8V19.5V13.8H25.5ZM9 0.3H27C28.4843 0.3 29.7 1.51568 29.7 3V21C29.7 22.4843 28.4843 23.7 27 23.7H9C7.51569 23.7 6.3 22.4843 6.3 21V3C6.3 1.51569 7.51569 0.3 9 0.3Z" fill="#979797" stroke="black" stroke-width="0.6"/>
</svg>
