<svg width="36" height="35" viewBox="0 0 36 35" fill="none" xmlns="http://www.w3.org/2000/svg">
<path d="M3.70001 31.1852V31.4852H4.00001H28.5889V34.2926H4.00001C2.19798 34.2926 0.744458 32.8817 0.744458 31.1852V7.63334H3.70001V31.1852ZM30.6667 16.1519H30.9667V15.8519V12.4445V12.1445H30.6667H23.8556V5.62964V5.32964H23.5556H20H19.7V5.62964V12.1445H12.8889H12.5889V12.4445V15.8519V16.1519H12.8889H19.7V22.6667V22.9667H20H23.5556H23.8556V22.6667V16.1519H30.6667ZM11.1111 0.818524H32.4445C34.2465 0.818524 35.7 2.22945 35.7 3.92593V24.3704C35.7 26.0669 34.2465 27.4778 32.4445 27.4778H11.1111C9.30909 27.4778 7.85557 26.0669 7.85557 24.3704V3.92593C7.85557 2.22945 9.30909 0.818524 11.1111 0.818524Z" fill="#979797" stroke="black" stroke-width="0.6"/>
</svg>
