<svg width="34" height="33" viewBox="0 0 34 33" fill="none" xmlns="http://www.w3.org/2000/svg">
<path d="M3.1 29.7V30H3.4H26.9V32.7H3.4C1.68718 32.7 0.3 31.3409 0.3 29.7V6.9H3.1V29.7ZM28.9 15.15H29.2V14.85V11.55V11.25H28.9H22.4V4.95V4.65H22.1H18.7H18.4V4.95V11.25H11.9H11.6V11.55V14.85V15.15H11.9H18.4V21.45V21.75H18.7H22.1H22.4V21.45V15.15H28.9ZM10.2 0.3H30.6C32.3128 0.3 33.7 1.65906 33.7 3.3V23.1C33.7 24.7409 32.3128 26.1 30.6 26.1H10.2C8.48718 26.1 7.1 24.7409 7.1 23.1V3.3C7.1 1.65906 8.48718 0.3 10.2 0.3Z" fill="#11A1A1" stroke="black" stroke-width="0.6"/>
</svg>
