<svg width="42" height="41" viewBox="0 0 42 41" fill="none" xmlns="http://www.w3.org/2000/svg">
<g filter="url(#filter0_d)">
<path d="M7.4 6.6H4V29.7C4 31.515 5.53 33 7.4 33H31.2V29.7H7.4V6.6ZM34.6 0H14.2C12.33 0 10.8 1.485 10.8 3.3V23.1C10.8 24.915 12.33 26.4 14.2 26.4H34.6C36.47 26.4 38 24.915 38 23.1V3.3C38 1.485 36.47 0 34.6 0ZM32.9 14.85H26.1V21.45H22.7V14.85H15.9V11.55H22.7V4.95H26.1V11.55H32.9V14.85Z" fill="#11A1A1"/>
<path d="M7.1 29.7V30H7.4H30.9V32.7H7.4C5.68718 32.7 4.3 31.3409 4.3 29.7V6.9H7.1V29.7ZM32.9 15.15H33.2V14.85V11.55V11.25H32.9H26.4V4.95V4.65H26.1H22.7H22.4V4.95V11.25H15.9H15.6V11.55V14.85V15.15H15.9H22.4V21.45V21.75H22.7H26.1H26.4V21.45V15.15H32.9ZM14.2 0.3H34.6C36.3128 0.3 37.7 1.65906 37.7 3.3V23.1C37.7 24.7409 36.3128 26.1 34.6 26.1H14.2C12.4872 26.1 11.1 24.7409 11.1 23.1V3.3C11.1 1.65906 12.4872 0.3 14.2 0.3Z" stroke="black" stroke-width="0.6"/>
</g>
<defs>
<filter id="filter0_d" x="0" y="0" width="42" height="41" filterUnits="userSpaceOnUse" color-interpolation-filters="sRGB">
<feFlood flood-opacity="0" result="BackgroundImageFix"/>
<feColorMatrix in="SourceAlpha" type="matrix" values="0 0 0 0 0 0 0 0 0 0 0 0 0 0 0 0 0 0 127 0"/>
<feOffset dy="4"/>
<feGaussianBlur stdDeviation="2"/>
<feColorMatrix type="matrix" values="0 0 0 0 0 0 0 0 0 0 0 0 0 0 0 0 0 0 0.25 0"/>
<feBlend mode="normal" in2="BackgroundImageFix" result="effect1_dropShadow"/>
<feBlend mode="normal" in="SourceGraphic" in2="effect1_dropShadow" result="shape"/>
</filter>
</defs>
</svg>
