<svg width="44" height="44" viewBox="0 0 44 44" fill="none" xmlns="http://www.w3.org/2000/svg">
<path d="M33 31.4667H33.3V31.1667V27.5V27.2H33H11H10.7V27.5V31.1667V31.4667H11H33ZM33 24.1333H33.3V23.8333V20.1667V19.8667H33H11H10.7V20.1667V23.8333V24.1333H11H33ZM33 16.8H33.3V16.5V12.8333V12.5333H33H11H10.7V12.8333V16.5V16.8H11H33ZM8.46213 6.6288L11 4.09094L13.5379 6.6288L13.75 6.84094L13.9621 6.6288L16.5 4.09094L19.0379 6.6288L19.25 6.84094L19.4621 6.6288L22 4.09094L24.5379 6.6288L24.75 6.84094L24.9621 6.6288L27.5 4.09094L30.0379 6.6288L30.25 6.84094L30.4621 6.6288L33 4.09094L35.5379 6.6288L35.75 6.84094L35.9621 6.6288L38.2 4.39093V39.6091L35.9621 37.3712L35.75 37.1591L35.5379 37.3712L33 39.9091L30.4621 37.3712L30.25 37.1591L30.0379 37.3712L27.5 39.9091L24.9621 37.3712L24.75 37.1591L24.5379 37.3712L22 39.9091L19.4621 37.3712L19.25 37.1591L19.0379 37.3712L16.5 39.9091L13.9621 37.3712L13.75 37.1591L13.5379 37.3712L11 39.9091L8.46213 37.3712L8.25 37.1591L8.03787 37.3712L5.8 39.6091V4.39094L8.03787 6.6288L8.25 6.84094L8.46213 6.6288Z" fill="#979797" stroke="black" stroke-width="0.6"/>
</svg>
