<svg width="49" height="31" viewBox="0 0 49 31" fill="none" xmlns="http://www.w3.org/2000/svg">
<path d="M33.6023 4.44301L33.6701 4.45792L33.7376 4.44149L46.4765 1.34081L46.8225 1.30008C47.1036 1.30282 47.3382 1.37372 47.4941 1.47157C47.6552 1.57274 47.7 1.67741 47.7 1.75V24.43C47.7 24.4881 47.6722 24.5633 47.5689 24.6472C47.4635 24.7329 47.2966 24.8107 47.0785 24.8564L47.0779 24.8565L33.6679 27.6931L19.3977 24.557L19.3299 24.5421L19.2624 24.5585L6.52344 27.6592L6.17754 27.6999C5.89642 27.6972 5.66176 27.6263 5.50592 27.5284C5.3448 27.4273 5.3 27.3226 5.3 27.25V4.57C5.3 4.51189 5.32779 4.43674 5.43106 4.35282C5.5365 4.26715 5.70339 4.18928 5.92146 4.14364L5.92208 4.14351L19.3321 1.30689L33.6023 4.44301ZM33.602 25.2929L33.9667 25.3735V25V7.165V6.92402L33.7314 6.87206L19.398 3.70706L19.0333 3.62653V4V21.835V22.076L19.2686 22.1279L33.602 25.2929Z" fill="#979797" stroke="black" stroke-width="0.6"/>
<g filter="url(#filter0_d)">
<path d="M40.5 9C38.0186 9 36 11.198 36 13.9C36 17.575 40.5 23 40.5 23C40.5 23 45 17.575 45 13.9C45 11.198 42.9814 9 40.5 9ZM40.5 10.4C41.2071 10.4 41.7857 11.03 41.7857 11.8C41.7857 12.577 41.2071 13.2 40.5 13.2C39.7929 13.2 39.2143 12.577 39.2143 11.8C39.2143 11.03 39.7929 10.4 40.5 10.4ZM40.5 17.4C39.4264 17.4 38.4814 16.805 37.9286 15.895C37.9414 14.971 39.645 14.46 40.5 14.46C41.355 14.46 43.0586 14.971 43.0714 15.895C42.5186 16.805 41.5736 17.4 40.5 17.4Z" fill="#FF0000"/>
<path d="M37.7286 15.8922L37.7278 15.9497L37.7576 15.9988C38.3426 16.9616 39.3488 17.6 40.5 17.6C41.6512 17.6 42.6574 16.9616 43.2424 15.9988L43.2722 15.9497L43.2714 15.8922C43.2673 15.5951 43.1263 15.3433 42.9271 15.1407C42.7291 14.9394 42.4647 14.7766 42.1844 14.649C41.6253 14.3945 40.9575 14.26 40.5 14.26C40.0425 14.26 39.3747 14.3945 38.8156 14.649C38.5353 14.7766 38.2709 14.9394 38.0729 15.1407C37.8737 15.3433 37.7327 15.5951 37.7286 15.8922ZM40.5 22.6816C40.4884 22.6671 40.4762 22.6517 40.4635 22.6356C40.3415 22.4814 40.1669 22.2567 39.9572 21.9754C39.5378 21.4126 38.9787 20.6245 38.42 19.7228C37.861 18.8206 37.3044 17.808 36.8881 16.7962C36.4708 15.782 36.2 14.7816 36.2 13.9C36.2 11.2921 38.1447 9.2 40.5 9.2C42.8553 9.2 44.8 11.2921 44.8 13.9C44.8 14.7816 44.5292 15.782 44.1119 16.7962C43.6956 17.808 43.139 18.8206 42.58 19.7228C42.0213 20.6245 41.4622 21.4126 41.0428 21.9754C40.8331 22.2567 40.6585 22.4814 40.5365 22.6356C40.5238 22.6517 40.5116 22.6671 40.5 22.6816ZM41.9857 11.8C41.9857 10.9359 41.3333 10.2 40.5 10.2C39.6667 10.2 39.0143 10.9359 39.0143 11.8C39.0143 12.6718 39.6673 13.4 40.5 13.4C41.3327 13.4 41.9857 12.6718 41.9857 11.8Z" stroke="black" stroke-width="0.4"/>
</g>
<g filter="url(#filter1_d)">
<path d="M9.51725 0.763184C6.85518 0.763184 4.68967 2.93226 4.68967 5.59871C4.68967 9.22535 9.51725 14.579 9.51725 14.579C9.51725 14.579 14.3448 9.22535 14.3448 5.59871C14.3448 2.93226 12.1793 0.763184 9.51725 0.763184ZM9.51725 2.14476C10.2759 2.14476 10.8966 2.76647 10.8966 3.52634C10.8966 4.29312 10.2759 4.90792 9.51725 4.90792C8.75863 4.90792 8.13794 4.29312 8.13794 3.52634C8.13794 2.76647 8.75863 2.14476 9.51725 2.14476ZM9.51725 9.05266C8.36553 9.05266 7.35174 8.46549 6.75863 7.56746C6.77243 6.65562 8.60001 6.15134 9.51725 6.15134C10.4345 6.15134 12.2621 6.65562 12.2759 7.56746C11.6828 8.46549 10.669 9.05266 9.51725 9.05266V9.05266Z" fill="#FF0000"/>
<path d="M6.55866 7.56444L6.55772 7.62617L6.59175 7.67768C7.22039 8.62952 8.29571 9.25266 9.51725 9.25266C10.7388 9.25266 11.8141 8.62952 12.4428 7.67768L12.4768 7.62617L12.4759 7.56444C12.4713 7.26437 12.3167 7.01381 12.1046 6.81545C11.8934 6.61781 11.6114 6.45811 11.3126 6.33298C10.7158 6.08307 10.0034 5.95134 9.51725 5.95134C9.03113 5.95134 8.31872 6.08307 7.7219 6.33298C7.42307 6.45811 7.14115 6.61781 6.92987 6.81545C6.71783 7.01381 6.56319 7.26437 6.55866 7.56444ZM9.51725 14.2761C9.5 14.2562 9.48138 14.2346 9.46145 14.2114C9.33056 14.0593 9.14325 13.8375 8.91834 13.5599C8.46832 13.0045 7.86863 12.2268 7.26934 11.3371C6.66966 10.4468 6.07284 9.44804 5.62655 8.45021C5.17909 7.44977 4.88967 6.46497 4.88967 5.59871C4.88967 3.04241 6.96595 0.963184 9.51725 0.963184C12.0686 0.963184 14.1448 3.04241 14.1448 5.59871C14.1448 6.46497 13.8554 7.44977 13.408 8.45021C12.9617 9.44804 12.3648 10.4468 11.7652 11.3371C11.1659 12.2268 10.5662 13.0045 10.1162 13.5599C9.89125 13.8375 9.70394 14.0593 9.57306 14.2114C9.55313 14.2346 9.5345 14.2562 9.51725 14.2761ZM11.0966 3.52634C11.0966 2.65633 10.3866 1.94476 9.51725 1.94476C8.64787 1.94476 7.93794 2.65633 7.93794 3.52634C7.93794 4.40392 8.64852 5.10792 9.51725 5.10792C10.386 5.10792 11.0966 4.40392 11.0966 3.52634Z" stroke="black" stroke-width="0.4"/>
</g>
<defs>
<filter id="filter0_d" x="32" y="9" width="17" height="22" filterUnits="userSpaceOnUse" color-interpolation-filters="sRGB">
<feFlood flood-opacity="0" result="BackgroundImageFix"/>
<feColorMatrix in="SourceAlpha" type="matrix" values="0 0 0 0 0 0 0 0 0 0 0 0 0 0 0 0 0 0 127 0"/>
<feOffset dy="4"/>
<feGaussianBlur stdDeviation="2"/>
<feColorMatrix type="matrix" values="0 0 0 0 0 0 0 0 0 0 0 0 0 0 0 0 0 0 0.25 0"/>
<feBlend mode="normal" in2="BackgroundImageFix" result="effect1_dropShadow"/>
<feBlend mode="normal" in="SourceGraphic" in2="effect1_dropShadow" result="shape"/>
</filter>
<filter id="filter1_d" x="0.689667" y="0.763184" width="17.6552" height="21.8158" filterUnits="userSpaceOnUse" color-interpolation-filters="sRGB">
<feFlood flood-opacity="0" result="BackgroundImageFix"/>
<feColorMatrix in="SourceAlpha" type="matrix" values="0 0 0 0 0 0 0 0 0 0 0 0 0 0 0 0 0 0 127 0"/>
<feOffset dy="4"/>
<feGaussianBlur stdDeviation="2"/>
<feColorMatrix type="matrix" values="0 0 0 0 0 0 0 0 0 0 0 0 0 0 0 0 0 0 0.25 0"/>
<feBlend mode="normal" in2="BackgroundImageFix" result="effect1_dropShadow"/>
<feBlend mode="normal" in="SourceGraphic" in2="effect1_dropShadow" result="shape"/>
</filter>
</defs>
</svg>
