<svg width="64" height="48" viewBox="0 0 64 48" fill="none" xmlns="http://www.w3.org/2000/svg">
<g filter="url(#filter0_d)">
<path d="M57.7576 4.75L57.2728 4.8075L41.0909 8.775L22.9091 4.75L5.8182 8.39167C5.18184 8.52583 4.72729 8.87083 4.72729 9.31167V38.2917C4.72729 38.8283 5.39396 39.25 6.24245 39.25L6.7273 39.1925L22.9091 35.225L41.0909 39.25L58.1818 35.6083C58.8182 35.4742 59.2728 35.1292 59.2728 34.6883V5.70833C59.2728 5.17167 58.6061 4.75 57.7576 4.75ZM41.0909 35.4167L22.9091 31.3725V8.58333L41.0909 12.6275V35.4167Z" fill="#979797"/>
<path d="M41.0261 9.06791L41.0944 9.08303L41.1624 9.06637L57.3263 5.10325L57.7748 5.05007C58.1453 5.05288 58.4597 5.14657 58.673 5.28146C58.8915 5.41965 58.9728 5.57635 58.9728 5.70833V34.6883C58.9728 34.7953 58.92 34.9132 58.7759 35.0312C58.6296 35.151 58.4051 35.2547 58.1199 35.3148L58.1193 35.3149L41.0921 38.943L22.974 34.9321L22.9056 34.917L22.8377 34.9336L6.67371 38.8967L6.22526 38.9499C5.85471 38.9471 5.54031 38.8534 5.32705 38.7185C5.10857 38.5804 5.02729 38.4236 5.02729 38.2917V9.31167C5.02729 9.20474 5.08004 9.08676 5.22413 8.96881C5.37047 8.84903 5.59495 8.74533 5.88009 8.68521L5.88072 8.68508L22.9079 5.05699L41.0261 9.06791ZM41.0258 35.7095L41.3909 35.7907V35.4167V12.6275V12.3869L41.1561 12.3347L22.9742 8.29049L22.6091 8.20927V8.58333V31.3725V31.6131L22.844 31.6653L41.0258 35.7095Z" stroke="black" stroke-width="0.6"/>
</g>
<g filter="url(#filter1_d)">
<path d="M52 16.48C48.4909 16.48 45.6364 19.3688 45.6364 22.92C45.6364 27.75 52 34.88 52 34.88C52 34.88 58.3636 27.75 58.3636 22.92C58.3636 19.3688 55.5091 16.48 52 16.48ZM52 18.32C53 18.32 53.8182 19.148 53.8182 20.16C53.8182 21.1812 53 22 52 22C51 22 50.1818 21.1812 50.1818 20.16C50.1818 19.148 51 18.32 52 18.32ZM52 27.52C50.4818 27.52 49.1454 26.738 48.3636 25.542C48.3818 24.3276 50.7909 23.656 52 23.656C53.2091 23.656 55.6182 24.3276 55.6364 25.542C54.8545 26.738 53.5182 27.52 52 27.52Z" fill="#FF0000"/>
<path d="M48.1636 25.539L48.1627 25.6002L48.1962 25.6514C49.0132 26.9012 50.4111 27.72 52 27.72C53.5889 27.72 54.9868 26.9012 55.8038 25.6514L55.8372 25.6002L55.8363 25.539C55.8307 25.164 55.6397 24.8465 55.3679 24.5896C55.097 24.3336 54.7328 24.1244 54.3427 23.9594C53.5633 23.6297 52.6323 23.456 52 23.456C51.3676 23.456 50.4367 23.6297 49.6573 23.9594C49.2671 24.1244 48.903 24.3336 48.6321 24.5896C48.3603 24.8465 48.1693 25.164 48.1636 25.539ZM52 34.5759C51.9651 34.5355 51.9246 34.4883 51.8788 34.4345C51.7059 34.2314 51.4586 33.9356 51.1617 33.5653C50.5677 32.8246 49.7759 31.7872 48.9846 30.6003C48.1929 29.4128 47.4039 28.0791 46.8136 26.7454C46.222 25.4092 45.8364 24.0875 45.8364 22.92C45.8364 19.477 48.6036 16.68 52 16.68C55.3964 16.68 58.1636 19.477 58.1636 22.92C58.1636 24.0875 57.778 25.4092 57.1864 26.7454C56.596 28.0791 55.8071 29.4128 55.0154 30.6003C54.2241 31.7872 53.4323 32.8246 52.8383 33.5653C52.5414 33.9356 52.294 34.2314 52.1211 34.4345C52.0754 34.4883 52.0348 34.5355 52 34.5759ZM54.0182 20.16C54.0182 19.0398 53.1127 18.12 52 18.12C50.8873 18.12 49.9818 19.0398 49.9818 20.16C49.9818 21.29 50.8879 22.2 52 22.2C53.112 22.2 54.0182 21.29 54.0182 20.16Z" stroke="black" stroke-width="0.4"/>
</g>
<g filter="url(#filter2_d)">
<path d="M14 0C10.14 0 7 3.14 7 7C7 12.25 14 20 14 20C14 20 21 12.25 21 7C21 3.14 17.86 0 14 0ZM14 2C15.1 2 16 2.9 16 4C16 5.11 15.1 6 14 6C12.9 6 12 5.11 12 4C12 2.9 12.9 2 14 2ZM14 12C12.33 12 10.86 11.15 10 9.85C10.02 8.53 12.67 7.8 14 7.8C15.33 7.8 17.98 8.53 18 9.85C17.14 11.15 15.67 12 14 12Z" fill="#FF0000"/>
<path d="M9.80002 9.84697L9.79909 9.90879L9.8332 9.96035C10.7288 11.3142 12.2603 12.2 14 12.2C15.7397 12.2 17.2712 11.3142 18.1668 9.96035L18.2009 9.90879L18.2 9.84697C18.1939 9.44474 17.9866 9.10352 17.6901 8.82665C17.3944 8.55047 16.9962 8.32432 16.5684 8.14548C15.7136 7.78814 14.6925 7.6 14 7.6C13.3075 7.6 12.2864 7.78814 11.4316 8.14548C11.0038 8.32432 10.6056 8.55047 10.3099 8.82665C10.0134 9.10352 9.80612 9.44474 9.80002 9.84697ZM14 19.6982C13.9582 19.6504 13.9082 19.5929 13.8507 19.5262C13.6605 19.3053 13.3883 18.9836 13.0615 18.581C12.4079 17.7756 11.5366 16.6476 10.6658 15.3569C9.79457 14.0656 8.92621 12.6151 8.27627 11.1643C7.62515 9.71094 7.2 8.27203 7.2 7C7.2 3.25046 10.2505 0.2 14 0.2C17.7495 0.2 20.8 3.25046 20.8 7C20.8 8.27203 20.3748 9.71094 19.7237 11.1643C19.0738 12.6151 18.2054 14.0656 17.3342 15.3569C16.4634 16.6476 15.5921 17.7756 14.9385 18.581C14.6117 18.9836 14.3395 19.3053 14.1493 19.5262C14.0918 19.5929 14.0418 19.6504 14 19.6982ZM16.2 4C16.2 2.78954 15.2105 1.8 14 1.8C12.7895 1.8 11.8 2.78954 11.8 4C11.8 5.22111 12.7902 6.2 14 6.2C15.2098 6.2 16.2 5.22111 16.2 4Z" stroke="black" stroke-width="0.4"/>
</g>
<defs>
<filter id="filter0_d" x="0.727295" y="4.75" width="62.5455" height="42.5" filterUnits="userSpaceOnUse" color-interpolation-filters="sRGB">
<feFlood flood-opacity="0" result="BackgroundImageFix"/>
<feColorMatrix in="SourceAlpha" type="matrix" values="0 0 0 0 0 0 0 0 0 0 0 0 0 0 0 0 0 0 127 0"/>
<feOffset dy="4"/>
<feGaussianBlur stdDeviation="2"/>
<feColorMatrix type="matrix" values="0 0 0 0 0 0 0 0 0 0 0 0 0 0 0 0 0 0 0.25 0"/>
<feBlend mode="normal" in2="BackgroundImageFix" result="effect1_dropShadow"/>
<feBlend mode="normal" in="SourceGraphic" in2="effect1_dropShadow" result="shape"/>
</filter>
<filter id="filter1_d" x="41.6364" y="16.48" width="20.7273" height="26.4" filterUnits="userSpaceOnUse" color-interpolation-filters="sRGB">
<feFlood flood-opacity="0" result="BackgroundImageFix"/>
<feColorMatrix in="SourceAlpha" type="matrix" values="0 0 0 0 0 0 0 0 0 0 0 0 0 0 0 0 0 0 127 0"/>
<feOffset dy="4"/>
<feGaussianBlur stdDeviation="2"/>
<feColorMatrix type="matrix" values="0 0 0 0 0 0 0 0 0 0 0 0 0 0 0 0 0 0 0.25 0"/>
<feBlend mode="normal" in2="BackgroundImageFix" result="effect1_dropShadow"/>
<feBlend mode="normal" in="SourceGraphic" in2="effect1_dropShadow" result="shape"/>
</filter>
<filter id="filter2_d" x="3" y="0" width="22" height="28" filterUnits="userSpaceOnUse" color-interpolation-filters="sRGB">
<feFlood flood-opacity="0" result="BackgroundImageFix"/>
<feColorMatrix in="SourceAlpha" type="matrix" values="0 0 0 0 0 0 0 0 0 0 0 0 0 0 0 0 0 0 127 0"/>
<feOffset dy="4"/>
<feGaussianBlur stdDeviation="2"/>
<feColorMatrix type="matrix" values="0 0 0 0 0 0 0 0 0 0 0 0 0 0 0 0 0 0 0.25 0"/>
<feBlend mode="normal" in2="BackgroundImageFix" result="effect1_dropShadow"/>
<feBlend mode="normal" in="SourceGraphic" in2="effect1_dropShadow" result="shape"/>
</filter>
</defs>
</svg>
