<svg width="63" height="45" viewBox="0 0 63 45" fill="none" xmlns="http://www.w3.org/2000/svg">
<g filter="url(#filter0_d)">
<path d="M57.0303 4.38694L56.5455 4.44005L40.3636 8.1043L22.1818 4.38694L5.09091 7.75027C4.45455 7.87418 4 8.19281 4 8.59995V35.3649C4 35.8606 4.66667 36.25 5.51515 36.25L6 36.1969L22.1818 32.5326L40.3636 36.25L57.4545 32.8867C58.0909 32.7628 58.5455 32.4441 58.5455 32.037V5.27203C58.5455 4.77638 57.8788 4.38694 57.0303 4.38694ZM40.3636 32.7097L22.1818 28.9746V7.92728L40.3636 11.6623V32.7097Z" fill="#13D9D9"/>
<path d="M40.3035 8.39822L40.3669 8.41117L40.4299 8.39689L56.5951 4.73641L57.0462 4.68699C57.4215 4.68941 57.7397 4.77703 57.9547 4.90266C58.1779 5.03304 58.2455 5.17231 58.2455 5.27203V32.037C58.2455 32.117 58.2031 32.2188 58.0577 32.3287C57.9113 32.4394 57.6852 32.5361 57.3972 32.5922L57.3966 32.5923L40.3648 35.944L22.2419 32.2387L22.1786 32.2258L22.1156 32.24L5.95037 35.9005L5.49923 35.95C5.12398 35.9475 4.80577 35.8599 4.59071 35.7343C4.36752 35.6039 4.3 35.4646 4.3 35.3649V8.59995C4.3 8.51998 4.34231 8.41814 4.48773 8.30821C4.63415 8.19752 4.86022 8.10082 5.14825 8.04474L5.14883 8.04462L22.1807 4.69292L40.3035 8.39822ZM40.3033 33.0035L40.6636 33.0776V32.7097V11.6623V11.4177L40.424 11.3685L22.2422 7.63342L21.8818 7.55939V7.92728V28.9746V29.2192L22.1215 29.2685L40.3033 33.0035Z" stroke="black" stroke-width="0.6"/>
</g>
<g filter="url(#filter1_d)">
<path d="M51.2727 15.2204C47.7636 15.2204 44.9091 17.8884 44.9091 21.1681C44.9091 25.629 51.2727 32.214 51.2727 32.214C51.2727 32.214 57.6363 25.629 57.6363 21.1681C57.6363 17.8884 54.7818 15.2204 51.2727 15.2204ZM51.2727 16.9197C52.2727 16.9197 53.0909 17.6844 53.0909 18.6191C53.0909 19.5622 52.2727 20.3185 51.2727 20.3185C50.2727 20.3185 49.4545 19.5622 49.4545 18.6191C49.4545 17.6844 50.2727 16.9197 51.2727 16.9197ZM51.2727 25.4165C49.7545 25.4165 48.4181 24.6943 47.6363 23.5897C47.6545 22.4681 50.0636 21.8479 51.2727 21.8479C52.4818 21.8479 54.8909 22.4681 54.9091 23.5897C54.1272 24.6943 52.7909 25.4165 51.2727 25.4165V25.4165Z" fill="#FF0000"/>
<path d="M47.4364 23.5865L47.4353 23.6519L47.4731 23.7053C48.293 24.8637 49.6907 25.6165 51.2727 25.6165C52.8546 25.6165 54.2523 24.8637 55.0723 23.7053L55.1101 23.6519L55.109 23.5865C55.1032 23.2287 54.9061 22.9306 54.6348 22.6937C54.3635 22.4569 53.9995 22.264 53.6103 22.1119C52.832 21.8078 51.9028 21.6479 51.2727 21.6479C50.6426 21.6479 49.7134 21.8078 48.9351 22.1119C48.5459 22.264 48.1819 22.4569 47.9106 22.6937C47.6393 22.9306 47.4422 23.2287 47.4364 23.5865ZM51.2727 31.9229C51.2367 31.8844 51.1944 31.8389 51.1463 31.7868C50.9735 31.5993 50.7262 31.3261 50.4294 30.9843C49.8355 30.3003 49.044 29.3426 48.253 28.2468C47.4616 27.1504 46.6734 25.9197 46.0837 24.6895C45.4927 23.4564 45.1091 22.2401 45.1091 21.1681C45.1091 18.0113 47.8611 15.4204 51.2727 15.4204C54.6843 15.4204 57.4363 18.0113 57.4363 21.1681C57.4363 22.2401 57.0527 23.4564 56.4617 24.6895C55.872 25.9197 55.0838 27.1504 54.2923 28.2468C53.5013 29.3426 52.7099 30.3003 52.116 30.9843C51.8192 31.3261 51.5719 31.5993 51.3991 31.7868C51.351 31.8389 51.3087 31.8844 51.2727 31.9229ZM53.2909 18.6191C53.2909 17.5615 52.3702 16.7197 51.2727 16.7197C50.1752 16.7197 49.2545 17.5615 49.2545 18.6191C49.2545 19.6858 50.1759 20.5185 51.2727 20.5185C52.3695 20.5185 53.2909 19.6858 53.2909 18.6191Z" stroke="black" stroke-width="0.4"/>
</g>
<g filter="url(#filter2_d)">
<path d="M13.2727 0C9.41271 0 6.27271 2.9 6.27271 6.46497C6.27271 11.3137 13.2727 18.4713 13.2727 18.4713C13.2727 18.4713 20.2727 11.3137 20.2727 6.46497C20.2727 2.9 17.1327 0 13.2727 0ZM13.2727 1.84713C14.3727 1.84713 15.2727 2.67834 15.2727 3.69427C15.2727 4.71943 14.3727 5.5414 13.2727 5.5414C12.1727 5.5414 11.2727 4.71943 11.2727 3.69427C11.2727 2.67834 12.1727 1.84713 13.2727 1.84713ZM13.2727 11.0828C11.6027 11.0828 10.1327 10.2978 9.27271 9.09713C9.29271 7.87803 11.9427 7.20382 13.2727 7.20382C14.6027 7.20382 17.2527 7.87803 17.2727 9.09713C16.4127 10.2978 14.9427 11.0828 13.2727 11.0828V11.0828Z" fill="#FF0000"/>
<path d="M9.07273 9.09385L9.07165 9.1599L9.11011 9.2136C10.0087 10.4681 11.5399 11.2828 13.2727 11.2828C15.0055 11.2828 16.5367 10.4681 17.4353 9.2136L17.4738 9.1599L17.4727 9.09385C17.4664 8.71077 17.2528 8.39079 16.9569 8.13555C16.6609 7.88018 16.2629 7.67157 15.836 7.50674C14.9824 7.17715 13.963 7.00382 13.2727 7.00382C12.5824 7.00382 11.5631 7.17715 10.7094 7.50674C10.2825 7.67157 9.88454 7.88018 9.58848 8.13555C9.29256 8.39079 9.07902 8.71077 9.07273 9.09385ZM13.2727 18.1823C13.2299 18.1371 13.1781 18.0821 13.1182 18.0179C12.9279 17.814 12.6559 17.5169 12.3292 17.1452C11.6757 16.4015 10.8047 15.36 9.9342 14.1684C9.06325 12.9762 8.1956 11.6376 7.5464 10.2992C6.89577 8.95793 6.47271 7.63335 6.47271 6.46497C6.47271 3.02513 9.50789 0.2 13.2727 0.2C17.0375 0.2 20.0727 3.02513 20.0727 6.46497C20.0727 7.63335 19.6496 8.95793 18.999 10.2992C18.3498 11.6376 17.4822 12.9762 16.6112 14.1684C15.7407 15.36 14.8697 16.4015 14.2162 17.1452C13.8896 17.5169 13.6175 17.814 13.4272 18.0179C13.3673 18.0821 13.3155 18.1371 13.2727 18.1823ZM15.4727 3.69427C15.4727 2.55321 14.4679 1.64713 13.2727 1.64713C12.0775 1.64713 11.0727 2.55321 11.0727 3.69427C11.0727 4.84518 12.0782 5.7414 13.2727 5.7414C14.4672 5.7414 15.4727 4.84518 15.4727 3.69427Z" stroke="black" stroke-width="0.4"/>
</g>
<defs>
<filter id="filter0_d" x="0" y="4.38694" width="62.5455" height="39.8631" filterUnits="userSpaceOnUse" color-interpolation-filters="sRGB">
<feFlood flood-opacity="0" result="BackgroundImageFix"/>
<feColorMatrix in="SourceAlpha" type="matrix" values="0 0 0 0 0 0 0 0 0 0 0 0 0 0 0 0 0 0 127 0"/>
<feOffset dy="4"/>
<feGaussianBlur stdDeviation="2"/>
<feColorMatrix type="matrix" values="0 0 0 0 0 0 0 0 0 0 0 0 0 0 0 0 0 0 0.25 0"/>
<feBlend mode="normal" in2="BackgroundImageFix" result="effect1_dropShadow"/>
<feBlend mode="normal" in="SourceGraphic" in2="effect1_dropShadow" result="shape"/>
</filter>
<filter id="filter1_d" x="40.9091" y="15.2204" width="20.7273" height="24.9936" filterUnits="userSpaceOnUse" color-interpolation-filters="sRGB">
<feFlood flood-opacity="0" result="BackgroundImageFix"/>
<feColorMatrix in="SourceAlpha" type="matrix" values="0 0 0 0 0 0 0 0 0 0 0 0 0 0 0 0 0 0 127 0"/>
<feOffset dy="4"/>
<feGaussianBlur stdDeviation="2"/>
<feColorMatrix type="matrix" values="0 0 0 0 0 0 0 0 0 0 0 0 0 0 0 0 0 0 0.25 0"/>
<feBlend mode="normal" in2="BackgroundImageFix" result="effect1_dropShadow"/>
<feBlend mode="normal" in="SourceGraphic" in2="effect1_dropShadow" result="shape"/>
</filter>
<filter id="filter2_d" x="2.27271" y="0" width="22" height="26.4713" filterUnits="userSpaceOnUse" color-interpolation-filters="sRGB">
<feFlood flood-opacity="0" result="BackgroundImageFix"/>
<feColorMatrix in="SourceAlpha" type="matrix" values="0 0 0 0 0 0 0 0 0 0 0 0 0 0 0 0 0 0 127 0"/>
<feOffset dy="4"/>
<feGaussianBlur stdDeviation="2"/>
<feColorMatrix type="matrix" values="0 0 0 0 0 0 0 0 0 0 0 0 0 0 0 0 0 0 0.25 0"/>
<feBlend mode="normal" in2="BackgroundImageFix" result="effect1_dropShadow"/>
<feBlend mode="normal" in="SourceGraphic" in2="effect1_dropShadow" result="shape"/>
</filter>
</defs>
</svg>
