<svg width="58" height="42" viewBox="0 0 58 42" fill="none" xmlns="http://www.w3.org/2000/svg">
<g filter="url(#filter0_d)">
<path d="M51.6944 3L51.2767 3.05167L37.3333 6.61667L21.6667 3L6.94 6.27222C6.39167 6.39278 6 6.70278 6 7.09889V33.1389C6 33.6211 6.57444 34 7.30556 34L7.72333 33.9483L21.6667 30.3833L37.3333 34L52.06 30.7278C52.6083 30.6072 53 30.2972 53 29.9011V3.86111C53 3.37889 52.4256 3 51.6944 3ZM37.3333 30.5556L21.6667 26.9217V6.44444L37.3333 10.0783V30.5556Z" fill="#11A1A1"/>
<path d="M37.2659 6.90898L37.337 6.92539L37.4076 6.90732L51.3325 3.34705L51.7122 3.30009C52.0214 3.30311 52.2814 3.38485 52.4562 3.50015C52.6351 3.61815 52.7 3.75036 52.7 3.86111V29.9011C52.7 29.9908 52.658 30.0896 52.5409 30.1896C52.4211 30.2918 52.2351 30.3821 51.9956 30.4348L51.9949 30.4349L37.3346 33.6924L21.7341 30.091L21.663 30.0746L21.5924 30.0927L7.66755 33.6529L7.28777 33.6999C6.97863 33.6969 6.71861 33.6152 6.54379 33.4998C6.3649 33.3819 6.3 33.2496 6.3 33.1389V7.09889C6.3 7.00924 6.342 6.91039 6.45914 6.8104C6.57888 6.7082 6.76489 6.61789 7.00442 6.56523L7.00507 6.56508L21.6654 3.3076L37.2659 6.90898ZM37.2655 30.8478L37.6333 30.9331V30.5556V10.0783V9.83995L37.4011 9.78609L21.7345 6.1522L21.3667 6.06689V6.44444V26.9217V27.16L21.5989 27.2139L37.2655 30.8478Z" stroke="black" stroke-width="0.6"/>
</g>
<g filter="url(#filter1_d)">
<path d="M46 11C43.2429 11 41 13.512 41 16.6C41 20.8 46 27 46 27C46 27 51 20.8 51 16.6C51 13.512 48.7571 11 46 11ZM46 12.6C46.7857 12.6 47.4286 13.32 47.4286 14.2C47.4286 15.088 46.7857 15.8 46 15.8C45.2143 15.8 44.5714 15.088 44.5714 14.2C44.5714 13.32 45.2143 12.6 46 12.6ZM46 20.6C44.8071 20.6 43.7571 19.92 43.1429 18.88C43.1571 17.824 45.05 17.24 46 17.24C46.95 17.24 48.8429 17.824 48.8571 18.88C48.2429 19.92 47.1929 20.6 46 20.6Z" fill="#FF0000"/>
<path d="M42.9429 18.8773L42.9421 18.9334L42.9707 18.9817C43.6157 20.0739 44.7268 20.8 46 20.8C47.2732 20.8 48.3843 20.0739 49.0293 18.9817L49.0579 18.9334L49.0571 18.8773C49.0527 18.5491 48.9013 18.2686 48.6828 18.04C48.4657 17.8129 48.1746 17.6282 47.8643 17.4829C47.2455 17.1932 46.5059 17.04 46 17.04C45.4941 17.04 44.7545 17.1932 44.1357 17.4829C43.8254 17.6282 43.5343 17.8129 43.3172 18.04C43.0987 18.2686 42.9473 18.5491 42.9429 18.8773ZM46 26.6764C45.9825 26.6539 45.9638 26.6295 45.9437 26.6034C45.808 26.427 45.6138 26.17 45.3807 25.8483C44.9143 25.2046 44.2926 24.3032 43.6713 23.2718C43.0497 22.2399 42.4304 21.0812 41.9669 19.9226C41.5026 18.7618 41.2 17.6139 41.2 16.6C41.2 13.6005 43.374 11.2 46 11.2C48.626 11.2 50.8 13.6005 50.8 16.6C50.8 17.6139 50.4974 18.7618 50.0331 19.9226C49.5696 21.0812 48.9503 22.2399 48.3287 23.2718C47.7074 24.3032 47.0857 25.2046 46.6193 25.8483C46.3862 26.17 46.192 26.427 46.0563 26.6034C46.0362 26.6295 46.0174 26.6539 46 26.6764ZM47.6286 14.2C47.6286 13.2315 46.9169 12.4 46 12.4C45.0831 12.4 44.3714 13.2315 44.3714 14.2C44.3714 15.1772 45.0837 16 46 16C46.9163 16 47.6286 15.1772 47.6286 14.2Z" stroke="black" stroke-width="0.4"/>
</g>
<g filter="url(#filter2_d)">
<path d="M14 3C11.2429 3 9 5.355 9 8.25C9 12.1875 14 18 14 18C14 18 19 12.1875 19 8.25C19 5.355 16.7571 3 14 3ZM14 4.5C14.7857 4.5 15.4286 5.175 15.4286 6C15.4286 6.8325 14.7857 7.5 14 7.5C13.2143 7.5 12.5714 6.8325 12.5714 6C12.5714 5.175 13.2143 4.5 14 4.5ZM14 12C12.8071 12 11.7571 11.3625 11.1429 10.3875C11.1571 9.3975 13.05 8.85 14 8.85C14.95 8.85 16.8429 9.3975 16.8571 10.3875C16.2429 11.3625 15.1929 12 14 12Z" fill="#FF0000"/>
<path d="M10.9429 10.3846L10.942 10.4439L10.9736 10.4941C11.6215 11.5225 12.733 12.2 14 12.2C15.267 12.2 16.3785 11.5225 17.0264 10.4941L17.058 10.4439L17.0571 10.3846C17.0526 10.0684 16.8971 9.80134 16.6783 9.58681C16.4606 9.37335 16.1694 9.20026 15.8599 9.06437C15.2419 8.79312 14.5039 8.65 14 8.65C13.4961 8.65 12.7581 8.79312 12.1401 9.06437C11.8306 9.20026 11.5394 9.37335 11.3217 9.58681C11.1029 9.80134 10.9474 10.0684 10.9429 10.3846ZM14 17.6888C13.9815 17.6664 13.9614 17.642 13.9398 17.6157C13.8041 17.4504 13.61 17.2095 13.377 16.908C12.9107 16.3047 12.2893 15.46 11.6683 14.4934C11.0469 13.5264 10.4281 12.441 9.96521 11.3561C9.50129 10.2688 9.2 9.19583 9.2 8.25C9.2 5.45615 11.3624 3.2 14 3.2C16.6376 3.2 18.8 5.45615 18.8 8.25C18.8 9.19583 18.4987 10.2688 18.0348 11.3561C17.5719 12.441 16.9531 13.5264 16.3317 14.4934C15.7107 15.46 15.0893 16.3047 14.623 16.908C14.39 17.2095 14.1959 17.4504 14.0602 17.6157C14.0386 17.642 14.0185 17.6664 14 17.6888ZM15.6286 6C15.6286 5.07385 14.9053 4.3 14 4.3C13.0947 4.3 12.3714 5.07385 12.3714 6C12.3714 6.93432 13.0954 7.7 14 7.7C14.9046 7.7 15.6286 6.93432 15.6286 6Z" stroke="black" stroke-width="0.4"/>
</g>
<defs>
<filter id="filter0_d" x="2" y="3" width="55" height="39" filterUnits="userSpaceOnUse" color-interpolation-filters="sRGB">
<feFlood flood-opacity="0" result="BackgroundImageFix"/>
<feColorMatrix in="SourceAlpha" type="matrix" values="0 0 0 0 0 0 0 0 0 0 0 0 0 0 0 0 0 0 127 0"/>
<feOffset dy="4"/>
<feGaussianBlur stdDeviation="2"/>
<feColorMatrix type="matrix" values="0 0 0 0 0 0 0 0 0 0 0 0 0 0 0 0 0 0 0.25 0"/>
<feBlend mode="normal" in2="BackgroundImageFix" result="effect1_dropShadow"/>
<feBlend mode="normal" in="SourceGraphic" in2="effect1_dropShadow" result="shape"/>
</filter>
<filter id="filter1_d" x="37" y="11" width="18" height="24" filterUnits="userSpaceOnUse" color-interpolation-filters="sRGB">
<feFlood flood-opacity="0" result="BackgroundImageFix"/>
<feColorMatrix in="SourceAlpha" type="matrix" values="0 0 0 0 0 0 0 0 0 0 0 0 0 0 0 0 0 0 127 0"/>
<feOffset dy="4"/>
<feGaussianBlur stdDeviation="2"/>
<feColorMatrix type="matrix" values="0 0 0 0 0 0 0 0 0 0 0 0 0 0 0 0 0 0 0.25 0"/>
<feBlend mode="normal" in2="BackgroundImageFix" result="effect1_dropShadow"/>
<feBlend mode="normal" in="SourceGraphic" in2="effect1_dropShadow" result="shape"/>
</filter>
<filter id="filter2_d" x="5" y="3" width="18" height="23" filterUnits="userSpaceOnUse" color-interpolation-filters="sRGB">
<feFlood flood-opacity="0" result="BackgroundImageFix"/>
<feColorMatrix in="SourceAlpha" type="matrix" values="0 0 0 0 0 0 0 0 0 0 0 0 0 0 0 0 0 0 127 0"/>
<feOffset dy="4"/>
<feGaussianBlur stdDeviation="2"/>
<feColorMatrix type="matrix" values="0 0 0 0 0 0 0 0 0 0 0 0 0 0 0 0 0 0 0.25 0"/>
<feBlend mode="normal" in2="BackgroundImageFix" result="effect1_dropShadow"/>
<feBlend mode="normal" in="SourceGraphic" in2="effect1_dropShadow" result="shape"/>
</filter>
</defs>
</svg>
