<svg width="55" height="39" viewBox="0 0 55 39" fill="none" xmlns="http://www.w3.org/2000/svg">
<g filter="url(#filter0_d)">
<path d="M49.6944 0L49.2767 0.0516666L35.3333 3.61667L19.6667 0L4.94 3.27222C4.39167 3.39278 4 3.70278 4 4.09889V30.1389C4 30.6211 4.57444 31 5.30556 31L5.72333 30.9483L19.6667 27.3833L35.3333 31L50.06 27.7278C50.6083 27.6072 51 27.2972 51 26.9011V0.861111C51 0.378889 50.4256 0 49.6944 0ZM35.3333 27.5556L19.6667 23.9217V3.44444L35.3333 7.07833V27.5556Z" fill="#11A1A1"/>
<path d="M35.2659 3.90898L35.337 3.92539L35.4076 3.90732L49.3325 0.347053L49.7122 0.300087C50.0214 0.303112 50.2814 0.384848 50.4562 0.500154C50.6351 0.618145 50.7 0.750363 50.7 0.861111V26.9011C50.7 26.9908 50.658 27.0896 50.5409 27.1896C50.4211 27.2918 50.2351 27.3821 49.9956 27.4348L49.9949 27.4349L35.3346 30.6924L19.7341 27.091L19.663 27.0746L19.5924 27.0927L5.66753 30.6529L5.28779 30.6999C4.97864 30.6969 4.71861 30.6152 4.54379 30.4998C4.3649 30.3819 4.3 30.2496 4.3 30.1389V4.09889C4.3 4.00924 4.342 3.91039 4.45914 3.8104C4.57888 3.7082 4.76489 3.61789 5.00442 3.56523L5.00507 3.56508L19.6654 0.307598L35.2659 3.90898ZM35.2655 27.8478L35.6333 27.9331V27.5556V7.07833V6.83995L35.4011 6.78609L19.7345 3.1522L19.3667 3.06689V3.44444V23.9217V24.16L19.5989 24.2139L35.2655 27.8478Z" stroke="black" stroke-width="0.6"/>
</g>
<g filter="url(#filter1_d)">
<path d="M44 8C41.2429 8 39 10.512 39 13.6C39 17.8 44 24 44 24C44 24 49 17.8 49 13.6C49 10.512 46.7571 8 44 8ZM44 9.6C44.7857 9.6 45.4286 10.32 45.4286 11.2C45.4286 12.088 44.7857 12.8 44 12.8C43.2143 12.8 42.5714 12.088 42.5714 11.2C42.5714 10.32 43.2143 9.6 44 9.6ZM44 17.6C42.8071 17.6 41.7571 16.92 41.1429 15.88C41.1571 14.824 43.05 14.24 44 14.24C44.95 14.24 46.8429 14.824 46.8571 15.88C46.2429 16.92 45.1929 17.6 44 17.6Z" fill="#FF0000"/>
<path d="M40.9429 15.8773L40.9421 15.9334L40.9707 15.9817C41.6157 17.0739 42.7268 17.8 44 17.8C45.2732 17.8 46.3843 17.0739 47.0293 15.9817L47.0579 15.9334L47.0571 15.8773C47.0527 15.5491 46.9013 15.2686 46.6828 15.04C46.4657 14.8129 46.1746 14.6282 45.8643 14.4829C45.2455 14.1932 44.5059 14.04 44 14.04C43.4941 14.04 42.7545 14.1932 42.1357 14.4829C41.8254 14.6282 41.5343 14.8129 41.3172 15.04C41.0987 15.2686 40.9473 15.5491 40.9429 15.8773ZM44 23.6764C43.9825 23.6539 43.9638 23.6295 43.9437 23.6034C43.808 23.427 43.6138 23.17 43.3807 22.8483C42.9143 22.2046 42.2926 21.3032 41.6713 20.2718C41.0497 19.2399 40.4304 18.0812 39.9669 16.9226C39.5026 15.7618 39.2 14.6139 39.2 13.6C39.2 10.6005 41.374 8.2 44 8.2C46.626 8.2 48.8 10.6005 48.8 13.6C48.8 14.6139 48.4974 15.7618 48.0331 16.9226C47.5696 18.0812 46.9503 19.2399 46.3287 20.2718C45.7074 21.3032 45.0857 22.2046 44.6193 22.8483C44.3862 23.17 44.192 23.427 44.0563 23.6034C44.0362 23.6295 44.0174 23.6539 44 23.6764ZM45.6286 11.2C45.6286 10.2315 44.9169 9.4 44 9.4C43.0831 9.4 42.3714 10.2315 42.3714 11.2C42.3714 12.1772 43.0837 13 44 13C44.9163 13 45.6286 12.1772 45.6286 11.2Z" stroke="black" stroke-width="0.4"/>
</g>
<g filter="url(#filter2_d)">
<path d="M12 0C9.24286 0 7 2.355 7 5.25C7 9.1875 12 15 12 15C12 15 17 9.1875 17 5.25C17 2.355 14.7571 0 12 0ZM12 1.5C12.7857 1.5 13.4286 2.175 13.4286 3C13.4286 3.8325 12.7857 4.5 12 4.5C11.2143 4.5 10.5714 3.8325 10.5714 3C10.5714 2.175 11.2143 1.5 12 1.5ZM12 9C10.8071 9 9.75714 8.3625 9.14286 7.3875C9.15714 6.3975 11.05 5.85 12 5.85C12.95 5.85 14.8429 6.3975 14.8571 7.3875C14.2429 8.3625 13.1929 9 12 9V9Z" fill="#FF0000"/>
<path d="M8.94288 7.38461L8.94202 7.44393L8.97364 7.49411C9.62155 8.52247 10.733 9.2 12 9.2C13.267 9.2 14.3785 8.52247 15.0264 7.49411L15.058 7.44393L15.0571 7.38461C15.0526 7.06844 14.8971 6.80134 14.6783 6.58681C14.4606 6.37335 14.1694 6.20026 13.8599 6.06437C13.2419 5.79312 12.5039 5.65 12 5.65C11.4961 5.65 10.7581 5.79312 10.1401 6.06437C9.83056 6.20026 9.53936 6.37335 9.32169 6.58681C9.10292 6.80134 8.94744 7.06844 8.94288 7.38461ZM12 14.6888C11.9815 14.6664 11.9614 14.642 11.9398 14.6157C11.8041 14.4504 11.61 14.2095 11.377 13.908C10.9107 13.3047 10.2893 12.46 9.66826 11.4934C9.04686 10.5264 8.42808 9.44095 7.96521 8.35608C7.50129 7.26877 7.2 6.19583 7.2 5.25C7.2 2.45615 9.3624 0.2 12 0.2C14.6376 0.2 16.8 2.45615 16.8 5.25C16.8 6.19583 16.4987 7.26877 16.0348 8.35608C15.5719 9.44095 14.9531 10.5264 14.3317 11.4934C13.7107 12.46 13.0893 13.3047 12.623 13.908C12.39 14.2095 12.1959 14.4504 12.0602 14.6157C12.0386 14.642 12.0185 14.6664 12 14.6888ZM13.6286 3C13.6286 2.07385 12.9053 1.3 12 1.3C11.0947 1.3 10.3714 2.07385 10.3714 3C10.3714 3.93432 11.0954 4.7 12 4.7C12.9046 4.7 13.6286 3.93432 13.6286 3Z" stroke="black" stroke-width="0.4"/>
</g>
<defs>
<filter id="filter0_d" x="0" y="0" width="55" height="39" filterUnits="userSpaceOnUse" color-interpolation-filters="sRGB">
<feFlood flood-opacity="0" result="BackgroundImageFix"/>
<feColorMatrix in="SourceAlpha" type="matrix" values="0 0 0 0 0 0 0 0 0 0 0 0 0 0 0 0 0 0 127 0"/>
<feOffset dy="4"/>
<feGaussianBlur stdDeviation="2"/>
<feColorMatrix type="matrix" values="0 0 0 0 0 0 0 0 0 0 0 0 0 0 0 0 0 0 0.25 0"/>
<feBlend mode="normal" in2="BackgroundImageFix" result="effect1_dropShadow"/>
<feBlend mode="normal" in="SourceGraphic" in2="effect1_dropShadow" result="shape"/>
</filter>
<filter id="filter1_d" x="35" y="8" width="18" height="24" filterUnits="userSpaceOnUse" color-interpolation-filters="sRGB">
<feFlood flood-opacity="0" result="BackgroundImageFix"/>
<feColorMatrix in="SourceAlpha" type="matrix" values="0 0 0 0 0 0 0 0 0 0 0 0 0 0 0 0 0 0 127 0"/>
<feOffset dy="4"/>
<feGaussianBlur stdDeviation="2"/>
<feColorMatrix type="matrix" values="0 0 0 0 0 0 0 0 0 0 0 0 0 0 0 0 0 0 0.25 0"/>
<feBlend mode="normal" in2="BackgroundImageFix" result="effect1_dropShadow"/>
<feBlend mode="normal" in="SourceGraphic" in2="effect1_dropShadow" result="shape"/>
</filter>
<filter id="filter2_d" x="3" y="0" width="18" height="23" filterUnits="userSpaceOnUse" color-interpolation-filters="sRGB">
<feFlood flood-opacity="0" result="BackgroundImageFix"/>
<feColorMatrix in="SourceAlpha" type="matrix" values="0 0 0 0 0 0 0 0 0 0 0 0 0 0 0 0 0 0 127 0"/>
<feOffset dy="4"/>
<feGaussianBlur stdDeviation="2"/>
<feColorMatrix type="matrix" values="0 0 0 0 0 0 0 0 0 0 0 0 0 0 0 0 0 0 0.25 0"/>
<feBlend mode="normal" in2="BackgroundImageFix" result="effect1_dropShadow"/>
<feBlend mode="normal" in="SourceGraphic" in2="effect1_dropShadow" result="shape"/>
</filter>
</defs>
</svg>
