<svg width="28" height="28" viewBox="0 0 28 28" fill="none" xmlns="http://www.w3.org/2000/svg">
<path d="M22.6121 22.1879L22.5243 22.1H22.4H8.40001C7.0257 22.1 5.90001 20.9743 5.90001 19.6V18.5H22.4C23.3357 18.5 24.1 17.7357 24.1 16.8V5.9H25.2C26.5743 5.9 27.7 7.02568 27.7 8.4V27.2757L22.6121 22.1879ZM5.60001 15.1H5.47575L5.38788 15.1879L0.300015 20.2757V2.8C0.300015 1.42569 1.4257 0.3 2.80001 0.3H18.2C19.5743 0.3 20.7 1.42569 20.7 2.8V12.6C20.7 13.9743 19.5743 15.1 18.2 15.1H5.60001Z" fill="#979797" stroke="black" stroke-width="0.6"/>
</svg>
