<svg width="41" height="33" viewBox="0 0 41 33" fill="none" xmlns="http://www.w3.org/2000/svg">
<path d="M4.53046 24.0106L4.77081 24.1901C4.89201 24.0278 5.06267 23.8024 5.28352 23.5135C5.51535 23.2105 5.7155 22.8949 5.88421 22.5661L5.88433 22.5658C6.04897 22.2442 6.2089 21.8929 6.36421 21.5105L6.46125 21.2716L6.2396 21.1398C4.38258 20.0354 2.93031 18.6825 1.87526 17.0841L1.87525 17.0841C0.822827 15.4899 0.3 13.7963 0.3 11.9994C0.3 9.89941 0.991458 7.95586 2.38771 6.16071L2.38774 6.16068C3.7858 4.36272 5.69874 2.93448 8.1382 1.88103C10.5766 0.828163 13.2317 0.3 16.1074 0.3C18.9834 0.3 21.6384 0.827838 24.0766 1.88069C26.5163 2.93431 28.4291 4.36256 29.8271 6.16043L30.0639 5.97628L29.8271 6.16043C31.2232 7.95585 31.9146 9.89948 31.9146 11.9994C31.9146 14.0993 31.2232 16.043 29.8271 17.8381L29.8271 17.8381L5.61729 22.4291C5.45701 22.7415 5.26652 23.0421 5.04518 23.3313C4.824 23.6207 4.65259 23.8471 4.53046 24.0106ZM4.53046 24.0106L4.77113 24.1897C4.63925 24.3669 4.43218 24.6071 4.15563 24.9058M4.53046 24.0106C4.4084 24.1746 4.21014 24.4053 3.93551 24.7019C3.80321 24.8449 3.69392 24.9643 3.60767 25.0602C3.64637 25.0947 3.67157 25.1354 3.68622 25.1709C3.7074 25.2222 3.70924 25.2669 3.70924 25.2876H3.41525C3.42319 25.2948 3.43096 25.3027 3.4385 25.3111L3.43835 25.3113L3.33363 25.4046L3.33361 25.4046L3.26039 25.4698C3.2346 25.5017 3.21933 25.5153 3.2145 25.5107C3.2135 25.5096 3.21209 25.5093 3.21027 25.5099C3.21114 25.5106 3.21201 25.5114 3.2129 25.5121C3.21294 25.5122 3.21299 25.5122 3.21303 25.5123C3.23704 25.5329 3.26611 25.5512 3.30095 25.5644C3.38514 25.5965 3.45786 25.5818 3.49227 25.5715C3.5117 25.5657 3.52806 25.5585 3.54084 25.552C3.54101 25.552 3.54118 25.5519 3.54135 25.5518C3.55197 25.5464 3.56009 25.5414 3.5654 25.538C3.58842 25.5232 3.60474 25.5076 3.61159 25.5004M4.15563 24.9058L3.93565 24.7021L4.15571 24.9057C4.15568 24.9057 4.15566 24.9057 4.15563 24.9058ZM4.15563 24.9058C3.87931 25.2044 3.71081 25.3923 3.64197 25.4769L3.33594 25.8531L3.37799 25.7854L3.37803 25.7854C3.38626 25.7721 3.39327 25.7611 3.39916 25.752C3.40177 25.7501 3.40396 25.7485 3.40573 25.7472C3.43628 25.7242 3.45955 25.6984 3.47131 25.6851C3.49907 25.6535 3.53019 25.612 3.56209 25.5672L3.56241 25.5667C3.59007 25.5277 3.60552 25.5077 3.61159 25.5004M3.61159 25.5004C3.61578 25.4961 3.61644 25.4948 3.61293 25.4989C3.61255 25.4993 3.6121 25.4998 3.61159 25.5004ZM3.40532 25.2844L3.40924 25.2876M3.40532 25.2844L3.29053 25.4306L3.32266 25.3968L3.4189 25.2955L3.42108 25.2932C3.41908 25.2913 3.41708 25.2894 3.41507 25.2876H3.40924M3.40532 25.2844C3.40793 25.2833 3.40924 25.2844 3.40924 25.2876M3.40924 25.2876C3.41005 25.2866 3.41087 25.2856 3.4117 25.2846" fill="#11A1A1" stroke="black" stroke-width="0.6"/>
<path d="M39.1252 23.0937L39.1253 23.0936C40.1776 21.5072 40.6999 19.8112 40.6999 17.9978C40.6999 16.14 40.148 14.4015 39.0367 12.777C38.0451 11.3285 36.7338 10.0922 35.0974 9.07016C35.3273 10.0354 35.4425 11.0116 35.4425 11.9984C35.4425 14.143 34.9192 16.1765 33.873 18.0948C32.8283 20.0111 31.3339 21.6986 29.3973 23.1589L29.3954 23.1604L29.3954 23.1603C27.597 24.4943 25.5528 25.5164 23.2654 26.229L23.2653 26.229C20.9783 26.9411 18.5914 27.2972 16.1065 27.2972C15.8736 27.2972 15.5884 27.2894 15.2514 27.2738C18.0397 28.887 21.2506 29.6973 24.8924 29.6973C26.1851 29.6973 27.5093 29.5738 28.8657 29.3269L28.992 29.3039L29.0958 29.3794C30.9556 30.7319 33.0418 31.7157 35.356 32.332C35.8889 32.4688 36.53 32.5911 37.281 32.6989C37.3765 32.7056 37.4661 32.6789 37.5608 32.6016L39.1252 23.0937ZM39.1252 23.0937C38.0709 24.6854 36.6184 26.0342 34.7614 27.14L34.5398 27.272L34.637 27.5108C34.7923 27.8924 34.9522 28.2443 35.1168 28.5656C35.2855 28.8947 35.4861 29.2107 35.7176 29.5131C35.9385 29.8023 36.1092 30.0274 36.23 30.1898L36.2301 30.1899C36.362 30.3671 36.5687 30.607 36.8455 30.9057L37.0655 30.7018M39.1252 23.0937L37.0655 30.7018M37.7697 32.0909C37.7596 32.1205 37.7547 32.1468 37.7519 32.1657C37.7457 32.2077 37.745 32.2517 37.7466 32.2929C37.711 32.4333 37.647 32.5306 37.5612 32.6012L37.7697 32.0909ZM37.7697 32.0909L37.7406 32.0005L37.7357 31.9855L37.7697 32.0909ZM37.0655 30.7018C36.7907 30.4052 36.5928 30.1748 36.4707 30.0108L37.0655 30.7018ZM37.0655 30.7018L36.8452 30.9054C37.1214 31.2043 37.2897 31.392 37.3587 31.477L37.3676 31.4879L37.3774 31.4979C37.3773 31.4978 37.3776 31.4981 37.3784 31.499C37.3793 31.5 37.3809 31.5017 37.3832 31.5042L37.3996 31.5228C37.4133 31.5386 37.4312 31.5596 37.4535 31.5861L37.4545 31.5873C37.4992 31.64 37.5395 31.6868 37.5696 31.7181L37.5714 31.7199L37.5714 31.72C37.5716 31.7202 37.5731 31.7218 37.576 31.7252C37.5793 31.729 37.5837 31.7344 37.5892 31.7415C37.6005 31.7559 37.6146 31.7751 37.632 31.7999L37.632 31.7999C37.6629 31.8437 37.6807 31.8742 37.6894 31.8907L37.0655 30.7018Z" fill="#11A1A1" stroke="black" stroke-width="0.6"/>
</svg>
