<svg width="42" height="42" viewBox="0 0 42 42" fill="none" xmlns="http://www.w3.org/2000/svg">
<g filter="url(#filter0_d)">
<path d="M34 6.66667H32.3333V20C32.3333 20.9167 31.5833 21.6667 30.6667 21.6667H10.6667V23.3333C10.6667 25.1667 12.1667 26.6667 14 26.6667H30.6667L37.3333 33.3333V10C37.3333 8.16667 35.8333 6.66667 34 6.66667ZM29 15V3.33333C29 1.5 27.5 0 25.6667 0H7.33333C5.5 0 4 1.5 4 3.33333V25L10.6667 18.3333H25.6667C27.5 18.3333 29 16.8333 29 15Z" fill="#11A1A1"/>
<path d="M30.8788 26.4545L30.7909 26.3667H30.6667H14C12.3324 26.3667 10.9667 25.001 10.9667 23.3333V21.9667H30.6667C31.749 21.9667 32.6333 21.0824 32.6333 20V6.96667H34C35.6677 6.96667 37.0333 8.33235 37.0333 10V32.6091L30.8788 26.4545ZM10.6667 18.0333H10.5424L10.4545 18.1212L4.3 24.2757V3.33333C4.3 1.66569 5.66569 0.3 7.33333 0.3H25.6667C27.3343 0.3 28.7 1.66569 28.7 3.33333V15C28.7 16.6676 27.3343 18.0333 25.6667 18.0333H10.6667Z" stroke="black" stroke-width="0.6"/>
</g>
<defs>
<filter id="filter0_d" x="0" y="0" width="41.3333" height="41.3333" filterUnits="userSpaceOnUse" color-interpolation-filters="sRGB">
<feFlood flood-opacity="0" result="BackgroundImageFix"/>
<feColorMatrix in="SourceAlpha" type="matrix" values="0 0 0 0 0 0 0 0 0 0 0 0 0 0 0 0 0 0 127 0"/>
<feOffset dy="4"/>
<feGaussianBlur stdDeviation="2"/>
<feColorMatrix type="matrix" values="0 0 0 0 0 0 0 0 0 0 0 0 0 0 0 0 0 0 0.25 0"/>
<feBlend mode="normal" in2="BackgroundImageFix" result="effect1_dropShadow"/>
<feBlend mode="normal" in="SourceGraphic" in2="effect1_dropShadow" result="shape"/>
</filter>
</defs>
</svg>
