<svg width="21" height="34" viewBox="0 0 21 34" fill="none" xmlns="http://www.w3.org/2000/svg">
<path d="M9.70316 15.5414L9.9694 15.6797L9.70312 15.5415L9.70305 15.5416L9.70279 15.5422L9.70181 15.544L9.69803 15.5513L9.68323 15.58L9.62504 15.6937C9.57369 15.7944 9.49741 15.9449 9.39737 16.1448C9.1973 16.5446 8.90217 17.1418 8.5213 17.9331C7.75955 19.5156 6.65483 21.8743 5.28156 24.9811C3.58547 28.8184 4.65148 31.8154 5.78061 33.5939L6.03388 33.4331L5.78062 33.5939C5.79354 33.6142 5.79408 33.6279 5.79296 33.6372C5.79151 33.6493 5.78542 33.6642 5.77326 33.6776C5.76108 33.6911 5.74804 33.6973 5.73905 33.6992C5.73312 33.7004 5.72229 33.7017 5.70259 33.6911C4.06579 32.8104 2.38072 31.2991 1.16764 28.7067L1.16754 28.7065C0.550248 27.3899 -1.25921 22.3976 3.38295 15.8517C8.63996 8.60631 8.78702 2.52489 8.63294 0.372669L8.63294 0.372651C8.63161 0.35404 8.63572 0.342044 8.6406 0.333527C8.6462 0.323787 8.65531 0.31459 8.66722 0.30811C8.67913 0.30163 8.69072 0.299538 8.69985 0.300085C8.70743 0.300539 8.7176 0.302893 8.73086 0.313314L8.73088 0.313334C9.39039 0.831438 9.96745 1.44079 10.4622 2.09566C12.3717 4.62286 13.2428 7.74019 13.2428 10.7776C13.2428 12.6446 13.4327 14.2134 13.7779 15.1465L13.7779 15.1465C13.9893 15.7179 14.2611 16.146 14.5897 16.3577C14.7616 16.4684 14.9573 16.5244 15.1617 16.4946C15.3636 16.4652 15.5374 16.3574 15.6791 16.2092C15.9542 15.9212 16.1515 15.4376 16.2696 14.8165C16.3895 14.1855 16.4349 13.3744 16.3748 12.3916C16.3736 12.3716 16.3783 12.3591 16.3834 12.3505C16.3894 12.3406 16.3991 12.3314 16.4115 12.3252C16.4239 12.3189 16.4356 12.3173 16.4446 12.3183C16.4518 12.319 16.4621 12.3218 16.4757 12.3338L16.4757 12.3338C17.2388 13.0094 18.6118 14.6296 19.7367 18.1642C20.612 20.9551 20.7831 23.1541 20.6681 24.7101L20.6679 24.7139C20.3554 29.8167 17.5977 32.3611 15.14 33.6334L15.1399 33.6335C15.1202 33.6437 15.1091 33.6425 15.1029 33.6411C15.0938 33.6391 15.0812 33.633 15.0694 33.6201C15.0577 33.6072 15.0515 33.5926 15.05 33.5804C15.0488 33.5708 15.0493 33.5568 15.0617 33.5363C17.2018 30.015 15.8488 25.836 13.508 22.5922C12.3242 20.9516 11.5114 19.2047 10.9942 17.8647C10.736 17.1955 10.5522 16.6297 10.4332 16.2321C10.3737 16.0333 10.3304 15.8767 10.3022 15.7704C10.2881 15.7173 10.2777 15.6767 10.271 15.6497L10.2635 15.6196L10.2618 15.6124L10.2614 15.6108L10.2613 15.6106L10.2613 15.6105L10.2613 15.6105L10.0753 14.8248L9.70316 15.5414Z" fill="#979797" stroke="black" stroke-width="0.6"/>
</svg>
