<svg width="26" height="40" viewBox="0 0 26 40" fill="none" xmlns="http://www.w3.org/2000/svg">
<path d="M11.604 18.3072L11.8696 18.4467L11.604 18.3072L11.6039 18.3074L11.6036 18.308L11.6024 18.3102L11.5979 18.3187L11.5804 18.3524C11.5648 18.3822 11.5417 18.4268 11.5112 18.486C11.4501 18.6043 11.3593 18.7813 11.2403 19.0163C11.0022 19.4864 10.6509 20.1888 10.1976 21.1195C9.2909 22.9808 7.97585 25.7552 6.34107 29.4098C4.33022 33.9052 5.59398 37.4135 6.93155 39.4953L7.18394 39.3331L6.93155 39.4953C6.95348 39.5294 6.95661 39.5571 6.95393 39.5791C6.95089 39.6041 6.93885 39.6315 6.91722 39.655C6.8956 39.6786 6.86956 39.6928 6.84546 39.6978C6.82427 39.7022 6.7968 39.7016 6.7611 39.6826C4.80168 38.6407 2.78702 36.8541 1.33781 33.7938L1.33771 33.7936C0.597346 32.2332 -1.56062 26.3399 3.98034 18.6195C10.2308 10.1073 10.4041 2.96498 10.2213 0.441959L10.2213 0.441942C10.2131 0.327799 10.3441 0.26005 10.4317 0.328047L10.4317 0.328067C11.2212 0.940945 11.9115 1.66135 12.503 2.43495C14.7845 5.41861 15.824 9.09723 15.824 12.6796C15.824 14.8745 16.0502 16.713 16.458 17.8022L16.739 17.697L16.458 17.8022C16.7086 18.4715 17.0272 18.9616 17.4028 19.2007C17.598 19.325 17.8166 19.3857 18.0427 19.3531C18.2667 19.3209 18.4624 19.2025 18.625 19.0343C18.9418 18.7066 19.1743 18.1494 19.3142 17.422C19.4561 16.6847 19.5102 15.7347 19.4388 14.5813C19.4313 14.4604 19.5708 14.398 19.6552 14.4719L19.6552 14.4719C20.5724 15.2743 22.2118 17.1892 23.5534 21.3547C24.5973 24.6435 24.802 27.2369 24.6645 29.0744L24.6643 29.0783C24.2909 35.1022 20.9941 38.1108 18.0532 39.6152L18.0532 39.6152C17.9382 39.674 17.8114 39.5445 17.8828 39.4284C20.4146 35.312 18.8178 30.4188 16.0353 26.6087C14.6223 24.6738 13.6526 22.6143 13.0359 21.0353C12.7279 20.2465 12.5087 19.5796 12.3667 19.1108C12.2957 18.8764 12.2441 18.6917 12.2103 18.5662C12.1934 18.5034 12.181 18.4555 12.1729 18.4235L12.164 18.3877L12.1619 18.3791L12.1614 18.3772L12.1613 18.3769L12.1613 18.3768L12.1613 18.3768L11.9754 17.6006L11.604 18.3072Z" fill="#979797" stroke="black" stroke-width="0.6"/>
</svg>
