<svg width="25" height="39" viewBox="0 0 25 39" fill="none" xmlns="http://www.w3.org/2000/svg">
<path d="M11.6042 17.8432L11.8683 17.9855L11.6042 17.8433L11.6041 17.8434L11.6038 17.844L11.6027 17.8462L11.5982 17.8545L11.5806 17.8874C11.5651 17.9164 11.5419 17.9599 11.5114 18.0176C11.4503 18.133 11.3595 18.3056 11.2405 18.5347C11.0024 18.9931 10.6512 19.678 10.1978 20.5855C9.29118 22.4004 7.97621 25.1055 6.34155 28.6689C4.3284 33.0574 5.59406 36.4833 6.93268 38.5148L7.18319 38.3497L6.93269 38.5148C6.95341 38.5462 6.9555 38.5701 6.95328 38.5878C6.95068 38.6087 6.94006 38.6334 6.91904 38.6558C6.89806 38.6781 6.87185 38.6924 6.8462 38.6977C6.82322 38.7023 6.79411 38.7013 6.75766 38.6824C4.79783 37.6663 2.78441 35.9246 1.33642 32.943L1.33632 32.9428C0.59756 31.4246 -1.55952 25.6846 3.97776 18.1614C10.229 9.85999 10.4033 2.89303 10.2203 0.429817L10.2203 0.429799C10.2167 0.38227 10.2394 0.341645 10.2867 0.316849C10.3344 0.29184 10.3883 0.293786 10.4335 0.327992L10.4335 0.328012C11.2228 0.925499 11.9128 1.62768 12.5039 2.38152C14.7839 5.28901 15.8223 8.87294 15.8223 12.3626C15.8223 14.5032 16.0486 16.2978 16.4572 17.3621L16.7295 17.2575L16.4572 17.3621C16.7084 18.0163 17.0279 18.4954 17.4038 18.7288C17.5989 18.8499 17.8159 18.9083 18.0398 18.8768C18.2618 18.8457 18.4572 18.7309 18.6204 18.5664C18.9386 18.2455 19.1717 17.7 19.312 16.9892C19.4541 16.2688 19.5082 15.3413 19.4368 14.2159C19.4336 14.1657 19.4584 14.1242 19.5078 14.1002C19.5575 14.0761 19.6118 14.0805 19.6559 14.1181L19.656 14.1181C20.5726 14.9001 22.2108 16.7659 23.5515 20.8251C24.5949 24.0303 24.7992 26.557 24.662 28.3464L24.6617 28.3503C24.2888 34.2169 20.9963 37.1491 18.054 38.6167L18.054 38.6167C17.9911 38.6481 17.9339 38.6324 17.8937 38.5898C17.8732 38.5681 17.8626 38.5438 17.8598 38.5229C17.8574 38.5049 17.8594 38.4809 17.8792 38.4494C20.4151 34.4289 18.8138 29.6511 16.0315 25.9361C14.6192 24.0503 13.65 22.0431 13.0337 20.5042C12.7258 19.7355 12.5067 19.0856 12.3648 18.6288C12.2939 18.4004 12.2423 18.2205 12.2086 18.0982C12.1917 18.0371 12.1793 17.9904 12.1712 17.9593L12.1623 17.9245L12.1602 17.9161L12.1597 17.9143L12.1597 17.914L12.1597 17.9139L12.1597 17.9139L11.9738 17.1575L11.6042 17.8432Z" fill="#11A1A1" stroke="black" stroke-width="0.6"/>
</svg>
