<svg width="30" height="24" viewBox="0 0 30 24" fill="none" xmlns="http://www.w3.org/2000/svg">
<path d="M22.5324 19.9071C24.8404 18.9557 26.6624 17.6606 27.9975 16.0214C29.3324 14.3826 30 12.5979 30 10.6673C30 8.73654 29.3324 6.9517 27.997 5.3128C26.662 3.6739 24.8403 2.3787 22.5321 1.42706C20.2238 0.475565 17.7132 0 14.9999 0C12.2869 0 9.77629 0.475857 7.46787 1.42706C5.15968 2.37863 3.33792 3.67382 2.00289 5.3128C0.667703 6.95199 0 8.73654 0 10.6673C0 12.32 0.505013 13.8763 1.51347 15.3347C2.52185 16.7928 3.90689 18.0222 5.66813 19.0221C5.52618 19.3557 5.38058 19.6609 5.2314 19.9391C5.08214 20.2168 4.90475 20.4839 4.69862 20.7411C4.49265 20.9983 4.33302 21.1996 4.21928 21.345C4.10562 21.4908 3.92099 21.6961 3.66517 21.9595C3.40941 22.2235 3.24598 22.3971 3.17508 22.4802C3.17508 22.4663 3.14665 22.4977 3.08978 22.5741C3.03284 22.6505 3.0009 22.685 2.99388 22.6785C2.98672 22.671 2.95828 22.7058 2.90858 22.7822C2.85888 22.8586 2.83395 22.8968 2.83395 22.8968L2.78059 23.0006C2.75955 23.0426 2.74507 23.0836 2.73805 23.1256C2.73089 23.1669 2.72731 23.2124 2.72731 23.2609C2.72731 23.3093 2.73432 23.3543 2.7488 23.3962C2.77723 23.5765 2.85888 23.722 2.99381 23.8337C3.12866 23.9446 3.27411 24 3.43053 24H3.49449C4.20458 23.9028 4.81549 23.7917 5.32677 23.6666C7.51429 23.1113 9.48889 22.2219 11.2502 20.9998C12.5285 21.2221 13.7786 21.3331 15.0001 21.3331C17.7134 21.3341 20.2242 20.8587 22.5324 19.9071Z" fill="#11A1A1"/>
</svg>
